<svg id="double-quotes-r" xmlns="http://www.w3.org/2000/svg" width="31" height="34.523" viewBox="0 0 31 34.523">
  <path id="Path_47" data-name="Path 47" d="M0,0H31V34.523H0Z" fill="none"/>
  <path id="Path_48" data-name="Path 48" d="M27.457,7.849c1.54,2.18,2.366,4.624,2.366,8.587A18.883,18.883,0,0,1,20.809,32.75L19.474,30a15.342,15.342,0,0,0,6.349-11.2,4.194,4.194,0,0,1-2.884.62c-2.7-.333-4.822-3.283-4.822-6.951,0-3.851,2.342-6.973,5.232-6.973a5.236,5.236,0,0,1,4.108,2.349Zm-14.948,0c1.54,2.18,2.366,4.624,2.366,8.587A18.883,18.883,0,0,1,5.861,32.75L4.526,30a15.342,15.342,0,0,0,6.349-11.2,4.194,4.194,0,0,1-2.884.62c-2.7-.333-4.821-3.283-4.821-6.951C3.17,8.622,5.512,5.5,8.4,5.5A5.236,5.236,0,0,1,12.51,7.849Z" transform="translate(-0.937 -1.625)" fill="#d4aa3e"/>
</svg>
