<svg xmlns="http://www.w3.org/2000/svg" width="88" height="87" viewBox="0 0 88 87">
  <g id="Group_49" data-name="Group 49" transform="translate(-842 -1231)">
    <path id="Rectangle_38" data-name="Rectangle 38" d="M12,0H68A20,20,0,0,1,88,20V75A12,12,0,0,1,76,87H20A20,20,0,0,1,0,67V12A12,12,0,0,1,12,0Z" transform="translate(842 1231)" fill="#d4aa3e" opacity="0.1"/>
    <g id="checked" transform="translate(795.223 1243.278)">
      <path id="Path_30" data-name="Path 30" d="M90.777,0,64.444,8.921v22.3c0,17.841,10.533,24.532,26.333,31.222,15.8-6.69,26.333-13.381,26.333-31.222V8.921L90.777,0ZM86.388,42.931,73.222,31.222l6.583-5.854,6.772,6.022,14.264-12.684,6.395,5.687Z" fill="#d4aa3e"/>
    </g>
  </g>
</svg>
