<svg xmlns="http://www.w3.org/2000/svg" width="38.167" height="34.167" viewBox="0 0 38.167 34.167">
  <g id="real-estate_1_" data-name="real-estate (1)" transform="translate(-11.25 -15.25)">
    <path id="Path_23" data-name="Path 23" d="M48.784,48.19H43.267V31.749a.614.614,0,0,0-.377-.561l-8.124-3.472V18.667a.623.623,0,0,0-.633-.613H26.99v-2.19a.633.633,0,0,0-1.266,0v2.19H18.582a.623.623,0,0,0-.633.613V48.19H11.883a.614.614,0,1,0,0,1.226h36.9a.614.614,0,1,0,0-1.226ZM42,48.19H40.553v-6.8a.623.623,0,0,0-.633-.613H33.107a.643.643,0,0,0-.448.18.6.6,0,0,0-.185.434v6.8H30.966V27.434l2.916,1.246.006,0L42,32.149Zm-2.713,0H33.74V42h5.547ZM19.215,19.28H33.5v7.9l-2.91-1.244a.651.651,0,0,0-.6.047.609.609,0,0,0-.288.513v21.7H19.215Z" fill="#d4aa3e"/>
    <path id="Path_24" data-name="Path 24" d="M42.071,30.5h-2.8a.623.623,0,0,0-.633.613v2.716a.623.623,0,0,0,.633.613h2.8a.643.643,0,0,0,.448-.18.6.6,0,0,0,.185-.434V31.113a.6.6,0,0,0-.185-.434A.643.643,0,0,0,42.071,30.5Zm-.633,2.716H39.9V31.726h1.538Z" transform="translate(-17.477 -9.906)" fill="#d4aa3e"/>
    <path id="Path_25" data-name="Path 25" d="M42.071,48.4h-2.8a.624.624,0,0,0-.633.613v2.716a.623.623,0,0,0,.633.613h2.8a.643.643,0,0,0,.448-.18.6.6,0,0,0,.185-.434V49.013a.623.623,0,0,0-.633-.613Zm-.633,2.716H39.9V49.626h1.538Z" transform="translate(-17.477 -21.533)" fill="#d4aa3e"/>
    <path id="Path_26" data-name="Path 26" d="M42.071,66.305h-2.8a.623.623,0,0,0-.633.613v2.716a.624.624,0,0,0,.633.613h2.8a.623.623,0,0,0,.633-.613V66.918a.6.6,0,0,0-.185-.434A.643.643,0,0,0,42.071,66.305Zm-.633,2.716H39.9V67.531h1.538Z" transform="translate(-17.477 -33.164)" fill="#d4aa3e"/>
    <path id="Path_27" data-name="Path 27" d="M42.071,84.207h-2.8a.623.623,0,0,0-.633.613v2.716a.623.623,0,0,0,.633.613h2.8a.643.643,0,0,0,.448-.18.6.6,0,0,0,.185-.434V84.82a.6.6,0,0,0-.185-.434A.643.643,0,0,0,42.071,84.207Zm-.633,2.716H39.9V85.433h1.538Z" transform="translate(-17.477 -44.793)" fill="#d4aa3e"/>
    <path id="Path_28" data-name="Path 28" d="M59.571,34.442a.643.643,0,0,0,.448-.18.6.6,0,0,0,.185-.434V31.113a.6.6,0,0,0-.185-.434.643.643,0,0,0-.448-.18h-2.8a.623.623,0,0,0-.633.613v2.716a.623.623,0,0,0,.633.613ZM57.4,31.726h1.538v1.489H57.4Z" transform="translate(-28.646 -9.906)" fill="#d4aa3e"/>
    <path id="Path_29" data-name="Path 29" d="M70.55,69.292a.643.643,0,0,0-.448.18.6.6,0,0,0-.185.434v2.488a.623.623,0,0,0,.633.613h6.813A.624.624,0,0,0,78,72.393V69.905a.623.623,0,0,0-.633-.613Zm6.18,2.488H71.183V70.518H76.73Z" transform="translate(-37.443 -35.104)" fill="#d4aa3e"/>
  </g>
</svg>
