<svg xmlns="http://www.w3.org/2000/svg" width="88" height="87" viewBox="0 0 88 87">
  <g id="Group_49" data-name="Group 49" transform="translate(-842 -1231)">
    <path id="Rectangle_38" data-name="Rectangle 38" d="M12,0H68A20,20,0,0,1,88,20V75A12,12,0,0,1,76,87H20A20,20,0,0,1,0,67V12A12,12,0,0,1,12,0Z" transform="translate(842 1231)" fill="#d4aa3e" opacity="0.1"/>
    <g id="return-of-investment" transform="translate(857 1219.882)">
      <g id="Group_54" data-name="Group 54" transform="translate(0.001 28.235)">
        <path id="Path_31" data-name="Path 31" d="M50.855,226.895a1.681,1.681,0,0,0-2.294.733,21.583,21.583,0,0,1-19.22,11.9A21.954,21.954,0,0,1,7.66,217.4l1.364,1.394a1.673,1.673,0,0,0,2.4,0,1.765,1.765,0,0,0,0-2.457l-4.188-4.282a1.673,1.673,0,0,0-2.592.04L.5,216.337a1.765,1.765,0,0,0,0,2.457,1.673,1.673,0,0,0,2.4,0L4.262,217.4a25.769,25.769,0,0,0,7.345,18.087A24.642,24.642,0,0,0,29.342,243a24.963,24.963,0,0,0,22.23-13.761,1.757,1.757,0,0,0-.717-2.345Z" transform="translate(-0.001 -190.236)" fill="#d4aa3e"/>
        <path id="Path_32" data-name="Path 32" d="M106.3,52.442a1.673,1.673,0,0,0-2.4,0l-1.361,1.391a25.769,25.769,0,0,0-7.345-18.087,24.641,24.641,0,0,0-17.735-7.511A24.963,24.963,0,0,0,55.223,42a1.757,1.757,0,0,0,.717,2.345,1.681,1.681,0,0,0,2.294-.733,21.583,21.583,0,0,1,19.22-11.9A21.954,21.954,0,0,1,99.135,53.836l-1.363-1.394a1.673,1.673,0,0,0-2.4,0,1.765,1.765,0,0,0,0,2.457l4.187,4.281a1.673,1.673,0,0,0,2.593-.038L106.3,54.9a1.765,1.765,0,0,0,0-2.457Z" transform="translate(-48.795 -28.235)" fill="#d4aa3e"/>
        <path id="Path_33" data-name="Path 33" d="M210.492,156.035a16.334,16.334,0,0,1-4.191-1.991,1.463,1.463,0,0,1-.323-1.369,1.96,1.96,0,0,1,1.267-1.551,3.329,3.329,0,0,1,3.065.46,1.675,1.675,0,0,0,2.378-.351,1.763,1.763,0,0,0-.343-2.432,6.711,6.711,0,0,0-2.531-1.161v-.707a1.7,1.7,0,1,0-3.4,0v.82c-.05.014-.1.028-.151.043a5.366,5.366,0,0,0-3.626,4.234,4.883,4.883,0,0,0,1.565,4.747,17.8,17.8,0,0,0,5.155,2.533,2.248,2.248,0,0,1,1.586,2.626,2.885,2.885,0,0,1-2.841,2.47,4.676,4.676,0,0,1-3.416-.916,1.677,1.677,0,0,0-2.352.5,1.761,1.761,0,0,0,.492,2.405,7.468,7.468,0,0,0,3.589,1.414v.794a1.7,1.7,0,1,0,3.4,0v-.961a6.051,6.051,0,0,0,2.518-1.43,6.563,6.563,0,0,0,1.964-3.7,5.738,5.738,0,0,0-3.8-6.479Z" transform="translate(-179.169 -131.647)" fill="#d4aa3e"/>
      </g>
    </g>
  </g>
</svg>
