<svg xmlns="http://www.w3.org/2000/svg" width="88" height="87" viewBox="0 0 88 87">
  <g id="Group_49" data-name="Group 49" transform="translate(-842 -1231)">
    <path id="Rectangle_38" data-name="Rectangle 38" d="M12,0H68A20,20,0,0,1,88,20V75A12,12,0,0,1,76,87H20A20,20,0,0,1,0,67V12A12,12,0,0,1,12,0Z" transform="translate(842 1231)" fill="#d4aa3e" opacity="0.1"/>
    <g id="business-and-trade" transform="translate(864.667 1252.866)">
      <path id="Path_42" data-name="Path 42" d="M23.164,3.226,3.627.218A3.122,3.122,0,0,0,1.1.92,3.239,3.239,0,0,0,0,3.334V41.288a1.8,1.8,0,0,0,1.778,1.8H7.556V33.632a3.124,3.124,0,0,1,3.111-3.152h4.444a3.124,3.124,0,0,1,3.111,3.152v9.457h7.556V6.342a3.142,3.142,0,0,0-2.613-3.116ZM9.778,26.427H7.111a1.351,1.351,0,0,1,0-2.7H9.778a1.351,1.351,0,0,1,0,2.7Zm0-5.4H7.111a1.351,1.351,0,0,1,0-2.7H9.778a1.351,1.351,0,0,1,0,2.7Zm0-5.4H7.111a1.351,1.351,0,0,1,0-2.7H9.778a1.351,1.351,0,0,1,0,2.7Zm0-5.4H7.111a1.351,1.351,0,0,1,0-2.7H9.778a1.351,1.351,0,0,1,0,2.7Zm8.889,16.212H16a1.351,1.351,0,0,1,0-2.7h2.667a1.351,1.351,0,0,1,0,2.7Zm0-5.4H16a1.351,1.351,0,0,1,0-2.7h2.667a1.351,1.351,0,0,1,0,2.7Zm0-5.4H16a1.351,1.351,0,0,1,0-2.7h2.667a1.351,1.351,0,0,1,0,2.7Zm0-5.4H16a1.351,1.351,0,0,1,0-2.7h2.667a1.351,1.351,0,0,1,0,2.7Z" transform="translate(0 0)" fill="#d4aa3e"/>
      <path id="Path_43" data-name="Path 43" d="M28.158,12.037,15.5,9.351V35.738h12a3.135,3.135,0,0,0,3.111-3.152V15.117A3.128,3.128,0,0,0,28.158,12.037Zm-4.213,18.3H21.278a1.351,1.351,0,0,1,0-2.7h2.667a1.351,1.351,0,0,1,0,2.7Zm0-5.4H21.278a1.351,1.351,0,0,1,0-2.7h2.667a1.351,1.351,0,0,1,0,2.7Zm0-5.4H21.278a1.351,1.351,0,0,1,0-2.7h2.667a1.351,1.351,0,0,1,0,2.7Z" transform="translate(12.056 7.35)" fill="#d4aa3e"/>
    </g>
  </g>
</svg>
