<svg id="XMLID_1167_" xmlns="http://www.w3.org/2000/svg" width="32" height="32" viewBox="0 0 32 32">
  <g id="XMLID_1015_" transform="translate(0 0)">
    <path id="XMLID_1084_" d="M75.9,86.872a.766.766,0,0,1,.823.689.625.625,0,0,0,1.25,0,1.962,1.962,0,0,0-1.448-1.849v-.087a.625.625,0,0,0-1.25,0v.087a1.962,1.962,0,0,0-1.448,1.849A2.012,2.012,0,0,0,75.9,89.5a.7.7,0,1,1-.823.689.625.625,0,0,0-1.25,0,1.962,1.962,0,0,0,1.448,1.849v.087a.625.625,0,0,0,1.25,0v-.087a1.962,1.962,0,0,0,1.448-1.849A2.012,2.012,0,0,0,75.9,88.25a.7.7,0,1,1,0-1.378Z" transform="translate(-69.217 -79.687)" fill="#d4aa3e"/>
    <path id="XMLID_1192_" d="M281.625,292.743a.625.625,0,0,0-.625.625v9.079a.625.625,0,0,0,.625.625h3a.625.625,0,0,0,.625-.625v-9.079a.625.625,0,0,0-.625-.625ZM284,301.822h-1.75v-7.829H284Z" transform="translate(-263.438 -274.447)" fill="#d4aa3e"/>
    <path id="XMLID_1195_" d="M380.625,269h-3a.625.625,0,0,0-.625.625v10.563a.625.625,0,0,0,.625.625h3a.625.625,0,0,0,.625-.625V269.625A.625.625,0,0,0,380.625,269ZM380,279.563h-1.75V270.25H380Z" transform="translate(-353.438 -252.188)" fill="#d4aa3e"/>
    <path id="XMLID_1200_" d="M185.625,348a.625.625,0,0,0-.625.625v5.625a.625.625,0,0,0,.625.625h3a.625.625,0,0,0,.625-.625v-5.625a.625.625,0,0,0-.625-.625ZM188,353.625h-1.75V349.25H188Z" transform="translate(-173.438 -326.25)" fill="#d4aa3e"/>
    <path id="XMLID_1202_" d="M185.625,135.229a.625.625,0,0,0,0,1.25A19,19,0,0,0,200,129.935V130a.625.625,0,0,0,1.25,0v-1.863a.625.625,0,0,0-.625-.625h-1.863a.625.625,0,0,0,0,1.25h.593A17.855,17.855,0,0,1,185.625,135.229Z" transform="translate(-173.438 -119.544)" fill="#d4aa3e"/>
    <path id="XMLID_1205_" d="M31.375,0H22.5a.625.625,0,0,0,0,1.25h8.25v29.5H8.625V15.588a6.688,6.688,0,0,0,0-12.8V1.25h8.25a.625.625,0,1,0,0-1.25H8a.625.625,0,0,0-.625.625v1.91a6.688,6.688,0,1,0-.687,13.34,6.736,6.736,0,0,0,.688-.035V31.375A.625.625,0,0,0,8,32H31.375A.625.625,0,0,0,32,31.375V.625A.625.625,0,0,0,31.375,0ZM1.25,9.188a5.438,5.438,0,1,1,5.438,5.438A5.444,5.444,0,0,1,1.25,9.188Z" transform="translate(0 0)" fill="#d4aa3e"/>
    <path id="XMLID_1206_" d="M305.625,1.25a.625.625,0,0,0,.442-1.067.625.625,0,1,0-.884.884A.63.63,0,0,0,305.625,1.25Z" transform="translate(-285.938 0)" fill="#d4aa3e"/>
  </g>
</svg>
