<svg xmlns="http://www.w3.org/2000/svg" width="48" height="48" viewBox="0 0 48 48">
  <g id="Group_5" data-name="Group 5" transform="translate(-1378 -1005)">
    <circle id="Ellipse_2" data-name="Ellipse 2" cx="24" cy="24" r="24" transform="translate(1378 1005)" fill="#d4aa3e" opacity="0.15"/>
    <g id="dream" transform="translate(1389.5 1016.75)">
      <g id="Group_12" data-name="Group 12">
        <g id="Group_11" data-name="Group 11">
          <path id="Path_7" data-name="Path 7" d="M21.339,3.588a12.681,12.681,0,0,0-17.678,0A12.067,12.067,0,0,0,1.439,17.96L.068,23.849A.482.482,0,0,0,.2,24.3a.5.5,0,0,0,.463.131L6.673,23.09A12.726,12.726,0,0,0,12.5,24.5a12.548,12.548,0,0,0,8.839-3.588,12.078,12.078,0,0,0,0-17.324ZM12.5,23.524a11.7,11.7,0,0,1-5.516-1.379.507.507,0,0,0-.35-.048L1.215,23.309,2.451,18a.48.48,0,0,0-.049-.343A11.108,11.108,0,0,1,1,12.25,11.4,11.4,0,0,1,12.5.976,11.4,11.4,0,0,1,24,12.25,11.4,11.4,0,0,1,12.5,23.524Z" fill="#d4aa3e"/>
        </g>
      </g>
      <g id="Group_14" data-name="Group 14" transform="translate(16.683 16.642)">
        <g id="Group_13" data-name="Group 13">
          <path id="Path_8" data-name="Path 8" d="M346.813,347.852a.5.5,0,0,0-.676.193,9.765,9.765,0,0,1-4.193,3.977.483.483,0,0,0-.219.656.5.5,0,0,0,.669.214,10.748,10.748,0,0,0,4.615-4.378A.483.483,0,0,0,346.813,347.852Z" transform="translate(-341.672 -347.791)" fill="#d4aa3e"/>
        </g>
      </g>
      <g id="Group_16" data-name="Group 16" transform="translate(13.845 21.555)">
        <g id="Group_15" data-name="Group 15">
          <path id="Path_9" data-name="Path 9" d="M285.411,450.807a.5.5,0,0,0-.612-.342c-.28.075-.567.139-.853.189a.489.489,0,0,0-.4.567.5.5,0,0,0,.49.4.515.515,0,0,0,.089-.008c.315-.055.631-.125.94-.208A.487.487,0,0,0,285.411,450.807Z" transform="translate(-283.536 -450.448)" fill="#d4aa3e"/>
        </g>
      </g>
      <g id="Group_18" data-name="Group 18" transform="translate(3.785 4.539)">
        <g id="Group_17" data-name="Group 17">
          <path id="Path_10" data-name="Path 10" d="M93.711,100.358a4.646,4.646,0,0,0-2.605-1.388,4.946,4.946,0,0,0-9.753,0,4.646,4.646,0,0,0-2.605,1.388,4.473,4.473,0,0,0-1.233,3.083,4.591,4.591,0,0,0,4.632,4.539h8.167a4.591,4.591,0,0,0,4.631-4.539A4.473,4.473,0,0,0,93.711,100.358ZM90.313,107H82.145a3.56,3.56,0,0,1-.3-7.112.493.493,0,0,0,.457-.456,3.94,3.94,0,0,1,7.852,0,.493.493,0,0,0,.457.456,3.56,3.56,0,0,1-.3,7.112Z" transform="translate(-77.514 -94.852)" fill="#d4aa3e"/>
        </g>
      </g>
    </g>
  </g>
</svg>
