<svg id="double-quotes-r" xmlns="http://www.w3.org/2000/svg" width="31" height="34.523" viewBox="0 0 31 34.523">
  <path id="Path_47" data-name="Path 47" d="M31,0H0V34.523H31Z" fill="none"/>
  <path id="Path_48" data-name="Path 48" d="M5.537,7.849C4,10.029,3.171,12.473,3.171,16.436A18.883,18.883,0,0,0,12.185,32.75L13.52,30A15.342,15.342,0,0,1,7.171,18.8a4.194,4.194,0,0,0,2.884.62c2.7-.333,4.822-3.283,4.822-6.951,0-3.851-2.342-6.973-5.232-6.973A5.236,5.236,0,0,0,5.537,7.845Zm14.948,0c-1.54,2.18-2.366,4.624-2.366,8.587A18.883,18.883,0,0,0,27.133,32.75L28.468,30a15.342,15.342,0,0,1-6.349-11.2A4.194,4.194,0,0,0,25,19.42c2.7-.333,4.821-3.283,4.821-6.951,0-3.847-2.342-6.969-5.23-6.969a5.236,5.236,0,0,0-4.11,2.349Z" transform="translate(-1.057 -1.625)" fill="#d4aa3e"/>
</svg>
