<svg xmlns="http://www.w3.org/2000/svg" width="25.139" height="22.539" viewBox="0 0 25.139 22.539">
  <g id="Iconly_Light_Message" data-name="Iconly/Light/Message" transform="translate(0.75 0.75)">
    <g id="Message">
      <path id="Path_445" d="M13.906,0,8.663,4.221a2.733,2.733,0,0,1-3.375,0L0,0" transform="translate(4.86 6.836)" fill="none" stroke="#57544d" stroke-linecap="round" stroke-linejoin="round" stroke-miterlimit="10" stroke-width="1.5"/>
      <path id="Rectangle_511" d="M6.008,0H17.6A6.093,6.093,0,0,1,22,1.955a6.167,6.167,0,0,1,1.63,4.553v8.024A6.167,6.167,0,0,1,22,19.084a6.093,6.093,0,0,1-4.4,1.955H6.008C2.419,21.039,0,18.119,0,14.531V6.507C0,2.92,2.419,0,6.008,0Z" transform="translate(0 0)" fill="none" stroke="#57544d" stroke-linecap="round" stroke-linejoin="round" stroke-miterlimit="10" stroke-width="1.5"/>
    </g>
  </g>
</svg>
