<svg xmlns="http://www.w3.org/2000/svg" width="109.394" height="102.866" viewBox="0 0 109.394 102.866">
  <g id="house" transform="translate(0 -21.461)">
    <g id="Group_20" data-name="Group 20" transform="translate(0 21.461)">
      <path id="Path_17" data-name="Path 17" d="M108.23,86.476a6.654,6.654,0,0,0-9.338-1.853L84.931,94.211,84.89,64.363l4.85,4.663a5.445,5.445,0,0,0,3.788,1.537h.008a5.5,5.5,0,0,0,4.038-1.8,5.795,5.795,0,0,0-.256-8.041l-9.195-8.841a1.533,1.533,0,0,0-2.207.074,1.633,1.633,0,0,0,.072,2.265l9.195,8.841a2.529,2.529,0,0,1,.112,3.51,2.368,2.368,0,0,1-1.763.786h0a2.376,2.376,0,0,1-1.653-.671h0l-36.511-35.1a1.532,1.532,0,0,0-2.138,0L16.811,66.8a2.376,2.376,0,0,1-3.42-.105,2.53,2.53,0,0,1,.1-3.51L52.63,25.339a2.378,2.378,0,0,1,3.313,0l22.9,22.015a1.533,1.533,0,0,0,2.207-.074,1.633,1.633,0,0,0-.072-2.265l-22.9-22.015a5.448,5.448,0,0,0-7.59.011L37.96,35.119l0-2.161a2.566,2.566,0,0,0-.73-1.8,2.436,2.436,0,0,0-1.754-.744h0l-8.962.013a2.436,2.436,0,0,0-1.755.749,2.567,2.567,0,0,0-.725,1.8l.025,15.589-12.7,12.279a5.795,5.795,0,0,0-.234,8.041,5.444,5.444,0,0,0,3.869,1.786l.17,0a5.427,5.427,0,0,0,3.8-1.548l4.839-4.679.019,14.1a32.075,32.075,0,0,0-4.741-.357H16.4V77.23a5.784,5.784,0,0,0-5.7-5.851h-5A5.783,5.783,0,0,0,0,77.23v25.113a1.582,1.582,0,0,0,1.561,1.6,1.582,1.582,0,0,0,1.561-1.6V77.23A2.615,2.615,0,0,1,5.7,74.584h5a2.615,2.615,0,0,1,2.578,2.646v37.951a2.615,2.615,0,0,1-2.578,2.646h-5a2.615,2.615,0,0,1-2.578-2.646v-2.8a1.582,1.582,0,0,0-1.561-1.6A1.582,1.582,0,0,0,0,112.377v2.8a5.784,5.784,0,0,0,5.7,5.851h5a5.784,5.784,0,0,0,5.7-5.851v-.218l22.867,8.888q.063.025.129.043a10.645,10.645,0,0,0,2.969.433,9.853,9.853,0,0,0,1.58-.127l33.6-4.972.023,0a16.253,16.253,0,0,0,7.794-3.585l.057-.05,21.71-20.041A7.072,7.072,0,0,0,108.23,86.476Zm-73.4-52.857.007,4.515-7.673,7.419L27.15,33.63ZM54.3,34.951,81.763,61.357l.048,35L77.39,99.391l-4.682-.27-.124-1.276a10.053,10.053,0,0,0-7.944-8.974L64.613,68.05a2.867,2.867,0,0,0-2.826-2.9h0L46.9,65.176a2.771,2.771,0,0,0-2,.852,2.92,2.92,0,0,0-.825,2.052L44.1,86.233a29.234,29.234,0,0,1-8.394-3.414q-.493-.3-.994-.573c-.13-.072-.263-.14-.394-.21-.2-.109-.406-.219-.612-.323-.164-.083-.329-.162-.494-.243s-.35-.171-.526-.254-.36-.163-.541-.243c-.165-.073-.33-.147-.5-.217-.186-.079-.373-.154-.56-.23-.166-.067-.332-.133-.5-.2q-.278-.107-.558-.207-.262-.1-.526-.186t-.538-.179c-.192-.062-.384-.121-.577-.18-.166-.05-.331-.1-.5-.147-.217-.062-.436-.12-.654-.178-.1-.027-.2-.057-.307-.084L26.91,61.434ZM61.518,88.47l-13.06-1.543-1.23-.145-.025-18.4L61.49,68.36Zm43.533,4.689L83.362,113.18a13.164,13.164,0,0,1-6.273,2.878l-33.59,4.97-.021,0-.023,0a7.26,7.26,0,0,1-3.15-.207L16.4,111.536V81.4h2.672a29.086,29.086,0,0,1,6.733.793l.245.06c.27.067.54.136.808.21l.07.02q.4.113.8.238l.144.045q.426.135.848.283l.087.031q.879.312,1.739.679l.094.04q.428.185.852.383l.023.011q.409.193.812.4l.1.048q.394.2.783.418l.147.082c.262.146.522.3.779.45a32.248,32.248,0,0,0,12.023,4.295l.04.005L63.69,91.954q.145.021.288.049A6.844,6.844,0,0,1,69.267,97a7.21,7.21,0,0,1,.211,1.166l.069.717L36.759,95.931a1.574,1.574,0,0,0-1.692,1.457,1.591,1.591,0,0,0,1.419,1.736l34.665,3.117h.025l.024,0,6.537.377.087,0c.031,0,.062-.005.092-.007s.07,0,.1-.008.092-.016.138-.027.066-.013.1-.023a1.493,1.493,0,0,0,.147-.055c.026-.011.053-.019.079-.031a1.531,1.531,0,0,0,.211-.121l5.549-3.812h0l16.388-11.257a3.574,3.574,0,0,1,5.017.995A3.8,3.8,0,0,1,105.051,93.159Z" transform="translate(0 -21.461)" fill="#3e3419"/>
    </g>
  </g>
</svg>
