<svg xmlns="http://www.w3.org/2000/svg" width="104" height="102.788" viewBox="0 0 104 102.788">
  <g id="knowledge" transform="translate(-0.203)">
    <path id="Path_11" data-name="Path 11" d="M104.2,295.55v-9.045H94.434v-6.03H91.178v-5.025h3.256v-9.045H70.084v3.015h21.3v3.015H28.216v3.015H88.125v5.025H21.674a2.513,2.513,0,1,1,0-5.025h3.489v-3.015H21.674a5.528,5.528,0,1,0,0,11.055H91.381v3.015H38.77v3.015h62.38v3.015H14.958a8.543,8.543,0,1,0,0,17.084h71.9V306.6h-71.9a5.528,5.528,0,1,1,0-11.055H97.894v5.025H30.223v3.015H97.894V306.6H89.913v3.015H101.15v3.015H14.958a11.558,11.558,0,1,1,0-23.114H35.718v-3.015H21.675a8.543,8.543,0,1,1,0-17.084H67.031v-3.015H21.675a11.644,11.644,0,0,0-11.7,11.557,11.467,11.467,0,0,0,3.88,8.587,14.564,14.564,0,0,0,1.106,29.1H104.2V306.6h-3.256V295.55Z" transform="translate(0 -212.861)" fill="#3e3419"/>
    <path id="Path_12" data-name="Path 12" d="M117.7,436.406h3.053v3.015H117.7Z" transform="translate(-93.586 -348.692)" fill="#3e3419"/>
    <path id="Path_13" data-name="Path 13" d="M69.533,44.8l.68.448c.265.174,6.68,4.273,23.234,4.273s22.969-4.1,23.234-4.273l.68-.448V19.425l9.159-3.015V30.642a5.547,5.547,0,0,0-4.07,5.317V43.5h11.194V35.959a5.547,5.547,0,0,0-4.07-5.317V15.4l5.336-1.756L118.877,8.371l-.966,2.86,7.342,2.417L93.447,24.119,61.64,13.649,93.447,3.178l21.569,7.1.966-2.86L93.447,0,51.986,13.649l17.547,5.776Zm61.057-8.846v4.522H125.5V35.959a2.544,2.544,0,0,1,5.088,0Zm-58-15.529L93.447,27.3l20.861-6.867V32.24h-3.765v3.015h3.765V38.27h-6.614v3.015h6.614V43.1c-1.967.946-8.3,3.408-20.861,3.408s-18.9-2.466-20.861-3.408Z" transform="translate(-41.244)" fill="#3e3419"/>
    <path id="Path_14" data-name="Path 14" d="M87.7,436.406h3.053v3.015H87.7Z" transform="translate(-69.692 -348.692)" fill="#3e3419"/>
    <path id="Path_15" data-name="Path 15" d="M295.7,190.406h3.053v3.015H295.7Z" transform="translate(-235.359 -152.136)" fill="#3e3419"/>
  </g>
</svg>
