<svg id="Rectangle_17" data-name="Rectangle 17" xmlns="http://www.w3.org/2000/svg" width="816" height="483" viewBox="0 0 816 483">
  <path id="Path_190" data-name="Path 190" d="M796,0H80A80,80,0,0,0,0,80V443a40,40,0,0,0,40,40H796a20,20,0,0,0,20-20V20A20,20,0,0,0,796,0Z" fill="none"/>
  <path id="Path_191" data-name="Path 191" d="M796,1.5H80A78.5,78.5,0,0,0,1.5,80V443A38.5,38.5,0,0,0,40,481.5H796A18.5,18.5,0,0,0,814.5,463V20A18.5,18.5,0,0,0,796,1.5Z" transform="translate(0)" fill="none" stroke="#d4aa3e" stroke-width="3"/>
</svg>
