<svg xmlns="http://www.w3.org/2000/svg" xmlns:xlink="http://www.w3.org/1999/xlink" width="24" height="24" viewBox="0 0 24 24">
  <defs>
    <clipPath id="clip-path">
      <rect id="Rectangle_180" data-name="Rectangle 180" width="24" height="24" transform="translate(1136 1649)" fill="#3e3419" stroke="#707070" stroke-width="1"/>
    </clipPath>
  </defs>
  <g id="Mask_Group_15" data-name="Mask Group 15" transform="translate(-1136 -1649)" clip-path="url(#clip-path)">
    <path id="bathtub" d="M22.921,10.641h-.047V2.953A2.956,2.956,0,0,0,19.921,0H18.093A2.956,2.956,0,0,0,15.14,2.953V4.534h-.4a.329.329,0,0,0-.256.123l-.232.291a4.094,4.094,0,0,0-.884,2.229,1.079,1.079,0,0,0-.985,1.073v.665a.328.328,0,0,0,.328.328h7.018a.328.328,0,0,0,.328-.328V8.25a1.079,1.079,0,0,0-.985-1.073,4.092,4.092,0,0,0-.883-2.229l-.233-.29a.328.328,0,0,0-.256-.123h-.4V2.953a.8.8,0,0,1,.8-.8h1.828a.8.8,0,0,1,.8.8V10.64H10.74v-.012A1.7,1.7,0,0,0,7.793,9.477a1.541,1.541,0,0,0-.911-.241,2.318,2.318,0,0,0-4.369,0,1.549,1.549,0,0,0-1.5,1.409A1.078,1.078,0,0,0,0,11.718v.562a1.079,1.079,0,0,0,1.078,1.078h.047v3.75A4.833,4.833,0,0,0,3.8,21.431l-.342.808a1.267,1.267,0,1,0,2.334.988l.546-1.29H17.66l.546,1.289a1.267,1.267,0,1,0,2.333-.989l-.342-.807a4.833,4.833,0,0,0,2.677-4.321v-3.75h.047A1.079,1.079,0,0,0,24,12.281v-.562A1.079,1.079,0,0,0,22.921,10.641ZM19.4,8.25v.337H13.037V8.25a.422.422,0,0,1,.422-.422h5.518A.422.422,0,0,1,19.4,8.25ZM17.674,5.358a3.435,3.435,0,0,1,.738,1.814H14.025a3.435,3.435,0,0,1,.737-1.814l.134-.167H17.54ZM19.921,1.5H18.093A1.455,1.455,0,0,0,16.64,2.953V4.534H15.8V2.953a2.3,2.3,0,0,1,2.3-2.3h1.828a2.3,2.3,0,0,1,2.3,2.3V10.64h-.844V2.953A1.455,1.455,0,0,0,19.921,1.5ZM2.555,9.891A.9.9,0,0,1,2.7,9.9a.328.328,0,0,0,.373-.253,1.662,1.662,0,0,1,3.249.021.328.328,0,0,0,.406.251.867.867,0,0,1,.881.251.328.328,0,0,0,.525-.061,1.042,1.042,0,0,1,1.948.517v.012H1.675A.892.892,0,0,1,2.555,9.891Zm2.634,13.08a.611.611,0,1,1-1.125-.476l.343-.81.048.015c.063.021.126.04.19.058l.082.023c.088.023.177.044.266.062l.078.014c.067.012.135.024.2.033l.1.013q.1.012.2.019l.059.006Zm14.4-1.287.343.81a.611.611,0,0,1-1.125.476l-.442-1.044.058-.006q.1-.008.2-.02l.1-.012c.07-.01.139-.021.208-.034L19,21.842q.135-.027.267-.062l.083-.023q.1-.027.19-.058l.048-.015Zm2.626-4.575a4.178,4.178,0,0,1-2.6,3.864c-.112.046-.228.088-.345.124l-.04.011c-.118.035-.238.066-.359.09l-.034.006c-.124.024-.25.043-.377.056h-.016q-.2.019-.4.019H5.953c-.132,0-.264-.007-.394-.019l-.024,0c-.125-.012-.248-.031-.371-.055L5.125,21.2c-.12-.024-.238-.054-.356-.089L4.728,21.1c-.116-.036-.231-.077-.344-.124a4.178,4.178,0,0,1-2.6-3.864v-3.75H22.218Zm1.125-4.828a.422.422,0,0,1-.422.422H1.078a.422.422,0,0,1-.422-.422v-.562a.422.422,0,0,1,.422-.422H22.921a.422.422,0,0,1,.422.422Z" transform="translate(1136 1649)" fill="#3e3419"/>
  </g>
</svg>
