<svg xmlns="http://www.w3.org/2000/svg" xmlns:xlink="http://www.w3.org/1999/xlink" width="24" height="24" viewBox="0 0 24 24">
  <defs>
    <clipPath id="clip-path">
      <rect id="Rectangle_179" data-name="Rectangle 179" width="24" height="24" transform="translate(1200 1649)" fill="#3e3419" stroke="#707070" stroke-width="1"/>
    </clipPath>
  </defs>
  <g id="Mask_Group_14" data-name="Mask Group 14" transform="translate(-1200 -1649)" clip-path="url(#clip-path)">
    <path id="bed" d="M24.387,20.516H24v-3.1a1.55,1.55,0,0,0-1.548-1.548V9.29A1.55,1.55,0,0,0,20.9,7.742H4.645A1.55,1.55,0,0,0,3.1,9.29v6.581a1.55,1.55,0,0,0-1.548,1.548v3.1H1.161a.387.387,0,0,0-.387.387v1.548a.387.387,0,0,0,.387.387h.387v1.548a.387.387,0,0,0,.387.387H3.1a.387.387,0,0,0,.379-.311L3.8,22.839H21.747l.325,1.624a.387.387,0,0,0,.379.311h1.161A.387.387,0,0,0,24,24.387V22.839h.387a.387.387,0,0,0,.387-.387V20.9A.387.387,0,0,0,24.387,20.516ZM3.871,9.29a.775.775,0,0,1,.774-.774H20.9a.775.775,0,0,1,.774.774v6.581H20.9V14.323a1.55,1.55,0,0,0-1.548-1.548H14.71a1.55,1.55,0,0,0-1.548,1.548v1.548h-.774V14.323a1.55,1.55,0,0,0-1.548-1.548H6.194a1.55,1.55,0,0,0-1.548,1.548v1.548H3.871Zm16.258,5.032v1.548H13.935V14.323a.775.775,0,0,1,.774-.774h4.645A.775.775,0,0,1,20.129,14.323Zm-8.516,0v1.548H5.419V14.323a.775.775,0,0,1,.774-.774h4.645A.775.775,0,0,1,11.613,14.323Zm-9.29,3.1a.775.775,0,0,1,.774-.774H22.452a.775.775,0,0,1,.774.774v3.1H2.323ZM2.779,24H2.323V22.839h.689Zm20.446,0h-.457l-.232-1.161h.689ZM24,22.065H1.548V21.29H24Z" transform="translate(1199.226 1644.742)" fill="#3e3419"/>
  </g>
</svg>
