<svg xmlns="http://www.w3.org/2000/svg" xmlns:xlink="http://www.w3.org/1999/xlink" width="24" height="24" viewBox="0 0 24 24">
  <defs>
    <clipPath id="clip-path">
      <rect id="Rectangle_181" data-name="Rectangle 181" width="24" height="24" transform="translate(1072 1649)" fill="#3e3419" stroke="#707070" stroke-width="1"/>
    </clipPath>
  </defs>
  <g id="Mask_Group_16" data-name="Mask Group 16" transform="translate(-1072 -1649)" clip-path="url(#clip-path)">
    <g id="garage" transform="translate(1072.493 1649)">
      <path id="Path_218" data-name="Path 218" d="M25.323,8.308,14.2,1.571a.394.394,0,0,0-.41,0L2.67,8.308a.387.387,0,0,0-.179.341V25.105a.388.388,0,0,0,.376.408H5.238a.4.4,0,0,0,.39-.408v-11.3H22.365v11.3a.4.4,0,0,0,.39.408h2.372a.388.388,0,0,0,.376-.408V8.649A.388.388,0,0,0,25.323,8.308Zm-19.694,4.7V11.417H22.365v1.594ZM24.707,24.716H23.162V11.022a.409.409,0,0,0-.407-.4H5.238a.409.409,0,0,0-.407.4V24.716H3.287V8.874L14,2.378l10.71,6.5Z" transform="translate(-2.49 -1.513)" fill="#3e3419"/>
      <path id="Path_219" data-name="Path 219" d="M24.67,31.327l-1.053-2.85a1.35,1.35,0,0,0-1.254-.88H14.785a1.35,1.35,0,0,0-1.254.88l-1.038,2.807-.409.386a1.8,1.8,0,0,0-.627,1.373v5.1a.4.4,0,0,0,.391.408h2.659a.4.4,0,0,0,.387-.408V36.712h7.173v1.435a.4.4,0,0,0,.387.408h2.659a.4.4,0,0,0,.391-.408V32.935a1.81,1.81,0,0,0-.553-1.3ZM14.278,28.762a.558.558,0,0,1,.506-.369h7.579a.558.558,0,0,1,.506.369l.872,2.371H13.406Zm-.182,9H12.254V36.712H14.1Zm8.767,0V36.712h1.843v1.046Zm1.843-1.843H12.254V33.042a1,1,0,0,1,.353-.77s.007,0,.012,0l.372-.339H24.128l.253.262.014.013a1,1,0,0,1,.313.73Z" transform="translate(-6.973 -14.555)" fill="#3e3419"/>
      <path id="Path_220" data-name="Path 220" d="M15.584,38.156h-.23a1.171,1.171,0,1,0,0,2.341h.23a1.171,1.171,0,0,0,0-2.341Zm0,1.544h-.23a.374.374,0,1,1,0-.747h.23a.374.374,0,1,1,0,.747Z" transform="translate(-8.337 -19.835)" fill="#3e3419"/>
      <path id="Path_221" data-name="Path 221" d="M33.082,38.156h-.23a1.171,1.171,0,1,0,0,2.341h.23a1.171,1.171,0,1,0,0-2.341Zm0,1.544h-.23a.374.374,0,0,1,0-.747h.23a.374.374,0,0,1,0,.747Z" transform="translate(-17.086 -19.835)" fill="#3e3419"/>
      <path id="Path_222" data-name="Path 222" d="M25.454,38.654a.4.4,0,0,0-.4-.4H21.021a.4.4,0,0,0-.4.4v1.494a.4.4,0,0,0,.4.4h4.035a.4.4,0,0,0,.4-.4Zm-.747,1.1H21.419v-.7h3.288Z" transform="translate(-11.556 -19.885)" fill="#3e3419"/>
    </g>
  </g>
</svg>
