<svg xmlns="http://www.w3.org/2000/svg" xmlns:xlink="http://www.w3.org/1999/xlink" width="24" height="24" viewBox="0 0 24 24">
  <defs>
    <clipPath id="clip-path">
      <rect id="Rectangle_182" data-name="Rectangle 182" width="24" height="24" transform="translate(1008 1649)" fill="#3e3419" stroke="#707070" stroke-width="1"/>
    </clipPath>
  </defs>
  <g id="Mask_Group_17" data-name="Mask Group 17" transform="translate(-1008 -1649)" clip-path="url(#clip-path)">
    <g id="Outline_20_" transform="translate(1008 1649)">
      <g id="Group_351" data-name="Group 351">
        <path id="Path_223" data-name="Path 223" d="M17.636,17.613H28.157a.352.352,0,0,0,.352-.352V8.994a.352.352,0,0,0-.135-.277l-5.26-4.133a.352.352,0,0,0-.435,0l-5.26,4.133a.352.352,0,0,0-.135.277V17.26A.352.352,0,0,0,17.636,17.613Zm3.734-.7V11.6h3.053v5.307ZM17.988,9.165,22.9,5.309,27.8,9.165v7.743H25.127V11.249a.352.352,0,0,0-.352-.352H21.018a.352.352,0,0,0-.352.352v5.659H17.988Z" transform="translate(-8.642 -2.254)" fill="#3e3419"/>
        <path id="Path_224" data-name="Path 224" d="M43.186,16.908a.352.352,0,0,0,0,.7h1.5a.352.352,0,0,0,0-.7h-.4V5.213h.4a.352.352,0,0,0,0-.7h-1.5a.352.352,0,0,0,0,.7h.4V16.908Z" transform="translate(-21.417 -2.254)" fill="#3e3419"/>
        <path id="Path_225" data-name="Path 225" d="M23.648,18.035H19.515a.352.352,0,1,0,0,.7H23.3V23.3H21.37V22.145a.352.352,0,0,0-.7,0V23.3h-2.3V21.769a.352.352,0,0,0-.7,0V23.3h-2.3V22.145a.352.352,0,0,0-.7,0V23.3h-2.3V21.769a.352.352,0,0,0-.7,0V23.3h-2.3V22.145a.352.352,0,0,0-.7,0V23.3h-2.3V21.769a.352.352,0,0,0-.7,0V23.3h-2.3V22.145a.352.352,0,0,0-.7,0V23.3H.7V21.369H1.855a.352.352,0,0,0,0-.7H.7v-2.3h1.9a.352.352,0,0,0,0-.7H.7v-2.3H1.855a.352.352,0,0,0,0-.7H.7v-2.3h1.9a.352.352,0,1,0,0-.7H.7v-2.3H1.855a.352.352,0,0,0,0-.7H.7v-2.3h1.9a.352.352,0,0,0,0-.7H.7v-2.3H1.855a.352.352,0,0,0,0-.7H.7V.7H5.26V18.387a.352.352,0,0,0,.352.352H17.8a.352.352,0,0,0,0-.7H5.965V.352A.352.352,0,0,0,5.613,0H.352A.352.352,0,0,0,0,.352v23.3A.352.352,0,0,0,.352,24h23.3A.352.352,0,0,0,24,23.648v-5.26a.352.352,0,0,0-.352-.352Z" transform="translate(0 0)" fill="#3e3419"/>
      </g>
    </g>
  </g>
</svg>
