<svg xmlns="http://www.w3.org/2000/svg" width="79" height="60.23" viewBox="0 0 79 60.23">
  <g id="book" transform="translate(0 -66.27)" opacity="0.8">
    <path id="Path_59" data-name="Path 59" d="M77.457,69.359H71.516C62.7,66.588,51.181,64.144,39.5,69.216a35.188,35.188,0,0,0-8.917-2.541,1.506,1.506,0,0,0-.244-.035c-8.407-1.184-16.364.678-22.855,2.718H1.543A1.566,1.566,0,0,0,0,70.946v53.967A1.566,1.566,0,0,0,1.543,126.5H77.457A1.566,1.566,0,0,0,79,124.913V70.946a1.566,1.566,0,0,0-1.543-1.587ZM41.035,72c10.291-4.327,20.605-2.341,28.708.127v44.307A58.743,58.743,0,0,0,57.482,114q-1.666-.129-3.3-.129a36.881,36.881,0,0,0-13.267,2.385C40.8,109.479,40.91,87.581,41.035,72ZM37.79,111.062c.008,2.151.023,3.864.045,5.1A37.815,37.815,0,0,0,21.518,114a58.743,58.743,0,0,0-12.26,2.433V72.125a63.1,63.1,0,0,1,10.184-2.3V83.644A1.584,1.584,0,0,0,20.5,85.15a1.518,1.518,0,0,0,1.722-.553l3.395-4.656L29.008,84.6a1.529,1.529,0,0,0,1.235.635,1.5,1.5,0,0,0,.488-.082,1.584,1.584,0,0,0,1.055-1.506V70.109a31.966,31.966,0,0,1,6.164,1.882c-.025,3.172-.1,12.979-.138,22.7C37.782,101.592,37.775,107.1,37.79,111.062Zm38.124,12.263H3.086V72.533H6.172v46.03a1.6,1.6,0,0,0,.626,1.277,1.508,1.508,0,0,0,1.37.24c5.9-1.867,18.147-5.744,30.579-.124a1.519,1.519,0,0,0,1.379.057c12.475-5.7,24.787-1.806,30.7.067a1.508,1.508,0,0,0,1.37-.24,1.6,1.6,0,0,0,.626-1.277V72.533h3.086v50.792Z" transform="translate(0)" fill="#3e3419"/>
    <path id="Path_60" data-name="Path 60" d="M286.734,290.134a39.244,39.244,0,0,1,8.021-.819,56.481,56.481,0,0,1,10.966,1.138,1.519,1.519,0,0,0,.321.035,1.554,1.554,0,0,0,1.508-1.259,1.587,1.587,0,0,0-1.191-1.881,59.775,59.775,0,0,0-11.6-1.206,42.258,42.258,0,0,0-8.636.883,1.587,1.587,0,0,0-1.2,1.872A1.545,1.545,0,0,0,286.734,290.134Z" transform="translate(-240.927 -184.971)" fill="#3e3419"/>
    <path id="Path_61" data-name="Path 61" d="M287.744,230.624a27.254,27.254,0,0,1,7.773-1.1,46.227,46.227,0,0,1,10.887,1.445,1.5,1.5,0,0,0,.389.051,1.552,1.552,0,0,0,1.492-1.189,1.592,1.592,0,0,0-1.106-1.935,49.518,49.518,0,0,0-11.662-1.547,30.256,30.256,0,0,0-8.63,1.228,1.594,1.594,0,0,0-1.054,1.966A1.537,1.537,0,0,0,287.744,230.624Z" transform="translate(-241.678 -134.668)" fill="#3e3419"/>
    <path id="Path_62" data-name="Path 62" d="M307.8,149.93a28.078,28.078,0,0,1,4.822-.41,45.145,45.145,0,0,1,7.891.738,1.516,1.516,0,0,0,.3.03,1.555,1.555,0,0,0,1.512-1.282,1.586,1.586,0,0,0-1.217-1.863,48.532,48.532,0,0,0-8.486-.8,31.081,31.081,0,0,0-5.339.454,1.584,1.584,0,0,0-1.263,1.831,1.548,1.548,0,0,0,1.78,1.3Z" transform="translate(-258.784 -67.366)" fill="#3e3419"/>
    <path id="Path_63" data-name="Path 63" d="M101.116,286.952a42.327,42.327,0,0,0-8.29-.812,59.774,59.774,0,0,0-11.6,1.206,1.587,1.587,0,0,0-1.191,1.881,1.554,1.554,0,0,0,1.508,1.259,1.513,1.513,0,0,0,.321-.035,56.481,56.481,0,0,1,10.966-1.138,39.316,39.316,0,0,1,7.7.754,1.546,1.546,0,0,0,1.809-1.255A1.586,1.586,0,0,0,101.116,286.952Z" transform="translate(-67.654 -184.971)" fill="#3e3419"/>
    <path id="Path_64" data-name="Path 64" d="M101.375,227.552a30.287,30.287,0,0,0-8.558-1.207,49.515,49.515,0,0,0-11.662,1.547,1.592,1.592,0,0,0-1.106,1.935,1.552,1.552,0,0,0,1.492,1.189,1.509,1.509,0,0,0,.389-.051,46.228,46.228,0,0,1,10.887-1.445,27.281,27.281,0,0,1,7.709,1.084,1.537,1.537,0,0,0,1.908-1.089,1.594,1.594,0,0,0-1.059-1.963Z" transform="translate(-67.655 -134.667)" fill="#3e3419"/>
  </g>
</svg>
