<svg xmlns="http://www.w3.org/2000/svg" width="76" height="56.506" viewBox="0 0 76 56.506">
  <g id="login" transform="translate(0 -14.748)">
    <path id="Path_52" data-name="Path 52" d="M71.992,14.748H4.008A3.946,3.946,0,0,0,0,18.621V67.683a3.64,3.64,0,0,0,3.7,3.571H72.3A3.64,3.64,0,0,0,76,67.681V18.621A3.946,3.946,0,0,0,71.992,14.748ZM2.078,18.621a1.9,1.9,0,0,1,1.93-1.864H71.992a1.9,1.9,0,0,1,1.93,1.864v6.954H2.078ZM73.922,67.683A1.594,1.594,0,0,1,72.3,69.246H3.7a1.594,1.594,0,0,1-1.619-1.565v-40.1H73.922Z" fill="#3e3419"/>
    <path id="Path_53" data-name="Path 53" d="M89.685,24.186H48.976a1,1,0,1,0,0,2.008H89.685a1,1,0,1,0,0-2.008Z" transform="translate(-19.474 -4.024)" fill="#3e3419"/>
    <path id="Path_54" data-name="Path 54" d="M11.786,24.186H9.039a1,1,0,1,0,0,2.008h2.747a1,1,0,1,0,0-2.008Z" transform="translate(-3.25 -4.024)" fill="#3e3419"/>
    <path id="Path_55" data-name="Path 55" d="M25.1,24.186H22.351a1,1,0,1,0,0,2.008H25.1a1,1,0,1,0,0-2.008Z" transform="translate(-8.658 -4.024)" fill="#3e3419"/>
    <path id="Path_56" data-name="Path 56" d="M38.41,24.186H35.664a1,1,0,1,0,0,2.008H38.41a1,1,0,1,0,0-2.008Z" transform="translate(-14.066 -4.024)" fill="#3e3419"/>
    <path id="Path_57" data-name="Path 57" d="M48.333,62.331a11.4,11.4,0,0,0,7.925,3.142A11.253,11.253,0,0,0,67.573,54.542,11,11,0,0,0,59.162,43.96a11.48,11.48,0,0,0-12.737,5.157,10.658,10.658,0,0,0,1.911,13.214Zm6.483-5.881A2.322,2.322,0,0,1,53.93,53.8a2.477,2.477,0,0,1,4.657,0A2.322,2.322,0,0,1,57.7,56.45a.985.985,0,0,0-.373,1.121,1.036,1.036,0,0,0,.987.692h.228A3.676,3.676,0,0,1,62.1,60.81l.159.507a9.441,9.441,0,0,1-11.994,0l.159-.507a3.676,3.676,0,0,1,3.552-2.547H54.2a1.036,1.036,0,0,0,.987-.691.985.985,0,0,0-.373-1.122Zm1.443-10.832a9.273,9.273,0,0,1,8.184,4.777,8.659,8.659,0,0,1-.593,9.22,5.673,5.673,0,0,0-3.553-3.1,4.276,4.276,0,0,0-1.19-5.38,4.651,4.651,0,0,0-5.694,0,4.276,4.276,0,0,0-1.19,5.38,5.673,5.673,0,0,0-3.554,3.1,8.659,8.659,0,0,1-.593-9.22,9.273,9.273,0,0,1,8.184-4.776Z" transform="translate(-18.258 -12.299)" fill="#3e3419"/>
    <path id="Path_58" data-name="Path 58" d="M38.039,96.589H66.094a3.361,3.361,0,0,0,3.414-3.3V90.923a3.361,3.361,0,0,0-3.414-3.3H38.039a3.362,3.362,0,0,0-3.414,3.3V93.29A3.362,3.362,0,0,0,38.039,96.589Zm28.055-6.956a1.316,1.316,0,0,1,1.336,1.291V93.29a1.316,1.316,0,0,1-1.336,1.291H61.121V89.633ZM36.7,90.923a1.316,1.316,0,0,1,1.336-1.291h21v4.949h-21A1.316,1.316,0,0,1,36.7,93.291Z" transform="translate(-14.066 -31.073)" fill="#3e3419"/>
  </g>
</svg>
