<svg xmlns="http://www.w3.org/2000/svg" width="30" height="26.2" viewBox="0 0 30 26.2">
  <g id="photo" transform="translate(0 -24)">
    <g id="Group_94" data-name="Group 94" transform="translate(0 24)">
      <g id="Group_93" data-name="Group 93">
        <ellipse id="Ellipse_7" data-name="Ellipse 7" cx="2.061" cy="2.033" rx="2.061" ry="2.033" transform="translate(9.246 6.465)" fill="#3e3419"/>
        <path id="Path_80" data-name="Path 80" d="M28.225,39.98a6.384,6.384,0,0,0-3.55-1.666V27.981A3.98,3.98,0,0,0,20.639,24H4.036a4.151,4.151,0,0,0-2.863,1.158A3.917,3.917,0,0,0,0,27.981V44.836a3.98,3.98,0,0,0,4.036,3.981H20.1a6.08,6.08,0,0,0,8.13-.367,5.94,5.94,0,0,0,0-8.47Zm-26.708-12a2.348,2.348,0,0,1,.744-1.722,2.529,2.529,0,0,1,1.775-.734h16.6a2.529,2.529,0,0,1,1.775.734,2.461,2.461,0,0,1,.744,1.75v8.809l-4.237-4.178a.776.776,0,0,0-1.088,0L11.45,38.963,7.128,34.672a.776.776,0,0,0-1.088,0L1.517,39.189Zm2.49,19.4V47.32a2.529,2.529,0,0,1-1.775-.734,2.558,2.558,0,0,1-.716-1.75v-3.5l5.067-5.025,4.323,4.263a.8.8,0,0,0,1.088,0l6.384-6.324,4.179,4.15-.258.085a2.686,2.686,0,0,0-.372.113c-.115.028-.229.085-.344.113a.862.862,0,0,0-.229.113,2.674,2.674,0,0,0-.286.141l-.429.254c-.086.056-.143.085-.229.141-.057.028-.086.056-.143.085a3.44,3.44,0,0,0-.687.593,5.932,5.932,0,0,0-1.775,4.235,6.125,6.125,0,0,0,.143,1.242c.029.113.057.2.086.311.086.282.172.565.286.847V46.7a5.157,5.157,0,0,0,.372.678Zm23.1,0a4.574,4.574,0,0,1-6.326.056c-.115-.113-.229-.254-.344-.367-.086-.085-.172-.2-.258-.282a2.673,2.673,0,0,1-.286-.48c-.057-.113-.115-.2-.172-.311a2.36,2.36,0,0,1-.143-.48c-.029-.113-.086-.254-.115-.367a4.611,4.611,0,0,1-.086-.9A4.466,4.466,0,0,1,23.9,39.782a4.628,4.628,0,0,1,3.206,1.3,4.382,4.382,0,0,1,1.317,3.162A4.484,4.484,0,0,1,27.109,47.377Z" transform="translate(0 -24)" fill="#3e3419"/>
        <path id="Path_81" data-name="Path 81" d="M301.677,264.626a1,1,0,0,0-.258-.169.846.846,0,0,0-.258-.056H301.1a.846.846,0,0,0-.258.056.677.677,0,0,0-.258.169l-1.775,1.75a.777.777,0,0,0,0,1.073.8.8,0,0,0,1.088,0l.458-.452V270.1a.773.773,0,0,0,1.546,0V267l.458.452a.8.8,0,0,0,1.088,0,.777.777,0,0,0,0-1.073Z" transform="translate(-277.231 -247.432)" fill="#3e3419"/>
      </g>
    </g>
  </g>
</svg>
