<svg xmlns="http://www.w3.org/2000/svg" width="62.001" height="58.708" viewBox="0 0 62.001 58.708">
  <g id="portfolio" transform="translate(0 -0.146)">
    <g id="Group_89" data-name="Group 89" transform="translate(0 0.146)">
      <path id="Path_65" data-name="Path 65" d="M184.463,50.854H165.6a.862.862,0,1,0,0,1.721h18.866a.862.862,0,1,0,0-1.721Z" transform="translate(-144.746 -45.036)" fill="#3e3419"/>
      <path id="Path_66" data-name="Path 66" d="M184.463,94.756H165.6a.862.862,0,1,0,0,1.721h18.866a.862.862,0,1,0,0-1.721Z" transform="translate(-144.746 -83.901)" fill="#3e3419"/>
      <path id="Path_67" data-name="Path 67" d="M195.6,196.541h-5.392v-2.4a5.914,5.914,0,0,0-6.06-5.742H173.94a5.914,5.914,0,0,0-6.06,5.742v2.4h-5.392a4.777,4.777,0,0,0-4.9,4.644v19.679a4.783,4.783,0,0,0,4.9,4.644H195.6a4.783,4.783,0,0,0,4.9-4.644v-3.729a.91.91,0,0,0-1.816,0v3.729a3.011,3.011,0,0,1-3.085,2.923H162.487a3.011,3.011,0,0,1-3.085-2.923v-12.2a8.3,8.3,0,0,0,6.005,2.857v1.314a3.324,3.324,0,0,0,6.638,0v-1.308h14v1.308a3.324,3.324,0,0,0,6.638,0v-1.314a8.3,8.3,0,0,0,6.005-2.857v4.444a.91.91,0,0,0,1.816,0V201.184A4.777,4.777,0,0,0,195.6,196.541Zm-25.907-2.4a4.142,4.142,0,0,1,4.244-4.021H184.15a4.142,4.142,0,0,1,4.244,4.021v2.4H186.5v-2.4a2.3,2.3,0,0,0-2.353-2.229H173.94a2.3,2.3,0,0,0-2.353,2.229v2.4H169.7Zm3.708,2.4v-2.4a.523.523,0,0,1,.536-.508H184.15a.523.523,0,0,1,.536.508v2.4Zm-3.174,16.3a1.5,1.5,0,0,1-3.005,0v-3.076a1.5,1.5,0,0,1,3.005,0Zm20.636,0a1.5,1.5,0,0,1-3.005,0V210.68s0-.006,0-.009,0-.006,0-.009v-.9a1.5,1.5,0,0,1,3.005,0Zm1.816-3.036v-.039a3.324,3.324,0,0,0-6.638,0v.047h-14v-.047a3.324,3.324,0,0,0-6.638,0v.039a6.155,6.155,0,0,1-6.005-5.987v-2.631a3.007,3.007,0,0,1,3.085-2.923H195.6a3.007,3.007,0,0,1,3.085,2.923v2.631A6.156,6.156,0,0,1,192.682,209.8Z" transform="translate(-138.503 -166.799)" fill="#3e3419"/>
      <path id="Path_68" data-name="Path 68" d="M17.912,57.133H4.491A2.61,2.61,0,0,1,1.816,54.6V13.267a2.423,2.423,0,0,1,.062-.546h8.265a3.054,3.054,0,0,0,3.13-2.965V1.926a2.845,2.845,0,0,1,.576-.059H44.642A2.61,2.61,0,0,1,47.317,4.4V19.165a.91.91,0,0,0,1.816,0V4.4A4.383,4.383,0,0,0,44.642.146H13.849a4.591,4.591,0,0,0-3.176,1.246L1.315,10.258A4.118,4.118,0,0,0,0,13.267V54.6a4.383,4.383,0,0,0,4.491,4.255H17.912a.862.862,0,1,0,0-1.721ZM11.457,3.084V9.756A1.282,1.282,0,0,1,10.144,11H3.1Z" transform="translate(0 -0.146)" fill="#3e3419"/>
    </g>
  </g>
</svg>
