<svg xmlns="http://www.w3.org/2000/svg" xmlns:xlink="http://www.w3.org/1999/xlink" width="102" height="219" viewBox="0 0 102 219">
  <defs>
    <clipPath id="clip-path">
      <rect width="102" height="219" fill="none"/>
    </clipPath>
  </defs>
  <g id="Repeat_Grid_1" data-name="Repeat Grid 1" opacity="0.6" clip-path="url(#clip-path)">
    <g transform="translate(-804 -964)">
      <circle id="Ellipse_1" data-name="Ellipse 1" cx="4" cy="4" r="4" transform="translate(804 964)" fill="#3e3419" opacity="0.24"/>
    </g>
    <g transform="translate(-794 -964)">
      <circle id="Ellipse_1-2" data-name="Ellipse 1" cx="4" cy="4" r="4" transform="translate(804 964)" fill="#3e3419" opacity="0.24"/>
    </g>
    <g transform="translate(-784 -964)">
      <circle id="Ellipse_1-3" data-name="Ellipse 1" cx="4" cy="4" r="4" transform="translate(804 964)" fill="#3e3419" opacity="0.24"/>
    </g>
    <g transform="translate(-774 -964)">
      <circle id="Ellipse_1-4" data-name="Ellipse 1" cx="4" cy="4" r="4" transform="translate(804 964)" fill="#3e3419" opacity="0.24"/>
    </g>
    <g transform="translate(-764 -964)">
      <circle id="Ellipse_1-5" data-name="Ellipse 1" cx="4" cy="4" r="4" transform="translate(804 964)" fill="#3e3419" opacity="0.24"/>
    </g>
    <g transform="translate(-754 -964)">
      <circle id="Ellipse_1-6" data-name="Ellipse 1" cx="4" cy="4" r="4" transform="translate(804 964)" fill="#3e3419" opacity="0.24"/>
    </g>
    <g transform="translate(-744 -964)">
      <circle id="Ellipse_1-7" data-name="Ellipse 1" cx="4" cy="4" r="4" transform="translate(804 964)" fill="#3e3419" opacity="0.24"/>
    </g>
    <g transform="translate(-734 -964)">
      <circle id="Ellipse_1-8" data-name="Ellipse 1" cx="4" cy="4" r="4" transform="translate(804 964)" fill="#3e3419" opacity="0.24"/>
    </g>
    <g transform="translate(-724 -964)">
      <circle id="Ellipse_1-9" data-name="Ellipse 1" cx="4" cy="4" r="4" transform="translate(804 964)" fill="#3e3419" opacity="0.24"/>
    </g>
    <g transform="translate(-714 -964)">
      <circle id="Ellipse_1-10" data-name="Ellipse 1" cx="4" cy="4" r="4" transform="translate(804 964)" fill="#3e3419" opacity="0.24"/>
    </g>
    <g transform="translate(-704 -964)">
      <circle id="Ellipse_1-11" data-name="Ellipse 1" cx="4" cy="4" r="4" transform="translate(804 964)" fill="#3e3419" opacity="0.24"/>
    </g>
    <g transform="translate(-804 -954)">
      <circle id="Ellipse_1-12" data-name="Ellipse 1" cx="4" cy="4" r="4" transform="translate(804 964)" fill="#3e3419" opacity="0.24"/>
    </g>
    <g transform="translate(-794 -954)">
      <circle id="Ellipse_1-13" data-name="Ellipse 1" cx="4" cy="4" r="4" transform="translate(804 964)" fill="#3e3419" opacity="0.24"/>
    </g>
    <g transform="translate(-784 -954)">
      <circle id="Ellipse_1-14" data-name="Ellipse 1" cx="4" cy="4" r="4" transform="translate(804 964)" fill="#3e3419" opacity="0.24"/>
    </g>
    <g transform="translate(-774 -954)">
      <circle id="Ellipse_1-15" data-name="Ellipse 1" cx="4" cy="4" r="4" transform="translate(804 964)" fill="#3e3419" opacity="0.24"/>
    </g>
    <g transform="translate(-764 -954)">
      <circle id="Ellipse_1-16" data-name="Ellipse 1" cx="4" cy="4" r="4" transform="translate(804 964)" fill="#3e3419" opacity="0.24"/>
    </g>
    <g transform="translate(-754 -954)">
      <circle id="Ellipse_1-17" data-name="Ellipse 1" cx="4" cy="4" r="4" transform="translate(804 964)" fill="#3e3419" opacity="0.24"/>
    </g>
    <g transform="translate(-744 -954)">
      <circle id="Ellipse_1-18" data-name="Ellipse 1" cx="4" cy="4" r="4" transform="translate(804 964)" fill="#3e3419" opacity="0.24"/>
    </g>
    <g transform="translate(-734 -954)">
      <circle id="Ellipse_1-19" data-name="Ellipse 1" cx="4" cy="4" r="4" transform="translate(804 964)" fill="#3e3419" opacity="0.24"/>
    </g>
    <g transform="translate(-724 -954)">
      <circle id="Ellipse_1-20" data-name="Ellipse 1" cx="4" cy="4" r="4" transform="translate(804 964)" fill="#3e3419" opacity="0.24"/>
    </g>
    <g transform="translate(-714 -954)">
      <circle id="Ellipse_1-21" data-name="Ellipse 1" cx="4" cy="4" r="4" transform="translate(804 964)" fill="#3e3419" opacity="0.24"/>
    </g>
    <g transform="translate(-704 -954)">
      <circle id="Ellipse_1-22" data-name="Ellipse 1" cx="4" cy="4" r="4" transform="translate(804 964)" fill="#3e3419" opacity="0.24"/>
    </g>
    <g transform="translate(-804 -944)">
      <circle id="Ellipse_1-23" data-name="Ellipse 1" cx="4" cy="4" r="4" transform="translate(804 964)" fill="#3e3419" opacity="0.24"/>
    </g>
    <g transform="translate(-794 -944)">
      <circle id="Ellipse_1-24" data-name="Ellipse 1" cx="4" cy="4" r="4" transform="translate(804 964)" fill="#3e3419" opacity="0.24"/>
    </g>
    <g transform="translate(-784 -944)">
      <circle id="Ellipse_1-25" data-name="Ellipse 1" cx="4" cy="4" r="4" transform="translate(804 964)" fill="#3e3419" opacity="0.24"/>
    </g>
    <g transform="translate(-774 -944)">
      <circle id="Ellipse_1-26" data-name="Ellipse 1" cx="4" cy="4" r="4" transform="translate(804 964)" fill="#3e3419" opacity="0.24"/>
    </g>
    <g transform="translate(-764 -944)">
      <circle id="Ellipse_1-27" data-name="Ellipse 1" cx="4" cy="4" r="4" transform="translate(804 964)" fill="#3e3419" opacity="0.24"/>
    </g>
    <g transform="translate(-754 -944)">
      <circle id="Ellipse_1-28" data-name="Ellipse 1" cx="4" cy="4" r="4" transform="translate(804 964)" fill="#3e3419" opacity="0.24"/>
    </g>
    <g transform="translate(-744 -944)">
      <circle id="Ellipse_1-29" data-name="Ellipse 1" cx="4" cy="4" r="4" transform="translate(804 964)" fill="#3e3419" opacity="0.24"/>
    </g>
    <g transform="translate(-734 -944)">
      <circle id="Ellipse_1-30" data-name="Ellipse 1" cx="4" cy="4" r="4" transform="translate(804 964)" fill="#3e3419" opacity="0.24"/>
    </g>
    <g transform="translate(-724 -944)">
      <circle id="Ellipse_1-31" data-name="Ellipse 1" cx="4" cy="4" r="4" transform="translate(804 964)" fill="#3e3419" opacity="0.24"/>
    </g>
    <g transform="translate(-714 -944)">
      <circle id="Ellipse_1-32" data-name="Ellipse 1" cx="4" cy="4" r="4" transform="translate(804 964)" fill="#3e3419" opacity="0.24"/>
    </g>
    <g transform="translate(-704 -944)">
      <circle id="Ellipse_1-33" data-name="Ellipse 1" cx="4" cy="4" r="4" transform="translate(804 964)" fill="#3e3419" opacity="0.24"/>
    </g>
    <g transform="translate(-804 -934)">
      <circle id="Ellipse_1-34" data-name="Ellipse 1" cx="4" cy="4" r="4" transform="translate(804 964)" fill="#3e3419" opacity="0.24"/>
    </g>
    <g transform="translate(-794 -934)">
      <circle id="Ellipse_1-35" data-name="Ellipse 1" cx="4" cy="4" r="4" transform="translate(804 964)" fill="#3e3419" opacity="0.24"/>
    </g>
    <g transform="translate(-784 -934)">
      <circle id="Ellipse_1-36" data-name="Ellipse 1" cx="4" cy="4" r="4" transform="translate(804 964)" fill="#3e3419" opacity="0.24"/>
    </g>
    <g transform="translate(-774 -934)">
      <circle id="Ellipse_1-37" data-name="Ellipse 1" cx="4" cy="4" r="4" transform="translate(804 964)" fill="#3e3419" opacity="0.24"/>
    </g>
    <g transform="translate(-764 -934)">
      <circle id="Ellipse_1-38" data-name="Ellipse 1" cx="4" cy="4" r="4" transform="translate(804 964)" fill="#3e3419" opacity="0.24"/>
    </g>
    <g transform="translate(-754 -934)">
      <circle id="Ellipse_1-39" data-name="Ellipse 1" cx="4" cy="4" r="4" transform="translate(804 964)" fill="#3e3419" opacity="0.24"/>
    </g>
    <g transform="translate(-744 -934)">
      <circle id="Ellipse_1-40" data-name="Ellipse 1" cx="4" cy="4" r="4" transform="translate(804 964)" fill="#3e3419" opacity="0.24"/>
    </g>
    <g transform="translate(-734 -934)">
      <circle id="Ellipse_1-41" data-name="Ellipse 1" cx="4" cy="4" r="4" transform="translate(804 964)" fill="#3e3419" opacity="0.24"/>
    </g>
    <g transform="translate(-724 -934)">
      <circle id="Ellipse_1-42" data-name="Ellipse 1" cx="4" cy="4" r="4" transform="translate(804 964)" fill="#3e3419" opacity="0.24"/>
    </g>
    <g transform="translate(-714 -934)">
      <circle id="Ellipse_1-43" data-name="Ellipse 1" cx="4" cy="4" r="4" transform="translate(804 964)" fill="#3e3419" opacity="0.24"/>
    </g>
    <g transform="translate(-704 -934)">
      <circle id="Ellipse_1-44" data-name="Ellipse 1" cx="4" cy="4" r="4" transform="translate(804 964)" fill="#3e3419" opacity="0.24"/>
    </g>
    <g transform="translate(-804 -924)">
      <circle id="Ellipse_1-45" data-name="Ellipse 1" cx="4" cy="4" r="4" transform="translate(804 964)" fill="#3e3419" opacity="0.24"/>
    </g>
    <g transform="translate(-794 -924)">
      <circle id="Ellipse_1-46" data-name="Ellipse 1" cx="4" cy="4" r="4" transform="translate(804 964)" fill="#3e3419" opacity="0.24"/>
    </g>
    <g transform="translate(-784 -924)">
      <circle id="Ellipse_1-47" data-name="Ellipse 1" cx="4" cy="4" r="4" transform="translate(804 964)" fill="#3e3419" opacity="0.24"/>
    </g>
    <g transform="translate(-774 -924)">
      <circle id="Ellipse_1-48" data-name="Ellipse 1" cx="4" cy="4" r="4" transform="translate(804 964)" fill="#3e3419" opacity="0.24"/>
    </g>
    <g transform="translate(-764 -924)">
      <circle id="Ellipse_1-49" data-name="Ellipse 1" cx="4" cy="4" r="4" transform="translate(804 964)" fill="#3e3419" opacity="0.24"/>
    </g>
    <g transform="translate(-754 -924)">
      <circle id="Ellipse_1-50" data-name="Ellipse 1" cx="4" cy="4" r="4" transform="translate(804 964)" fill="#3e3419" opacity="0.24"/>
    </g>
    <g transform="translate(-744 -924)">
      <circle id="Ellipse_1-51" data-name="Ellipse 1" cx="4" cy="4" r="4" transform="translate(804 964)" fill="#3e3419" opacity="0.24"/>
    </g>
    <g transform="translate(-734 -924)">
      <circle id="Ellipse_1-52" data-name="Ellipse 1" cx="4" cy="4" r="4" transform="translate(804 964)" fill="#3e3419" opacity="0.24"/>
    </g>
    <g transform="translate(-724 -924)">
      <circle id="Ellipse_1-53" data-name="Ellipse 1" cx="4" cy="4" r="4" transform="translate(804 964)" fill="#3e3419" opacity="0.24"/>
    </g>
    <g transform="translate(-714 -924)">
      <circle id="Ellipse_1-54" data-name="Ellipse 1" cx="4" cy="4" r="4" transform="translate(804 964)" fill="#3e3419" opacity="0.24"/>
    </g>
    <g transform="translate(-704 -924)">
      <circle id="Ellipse_1-55" data-name="Ellipse 1" cx="4" cy="4" r="4" transform="translate(804 964)" fill="#3e3419" opacity="0.24"/>
    </g>
    <g transform="translate(-804 -914)">
      <circle id="Ellipse_1-56" data-name="Ellipse 1" cx="4" cy="4" r="4" transform="translate(804 964)" fill="#3e3419" opacity="0.24"/>
    </g>
    <g transform="translate(-794 -914)">
      <circle id="Ellipse_1-57" data-name="Ellipse 1" cx="4" cy="4" r="4" transform="translate(804 964)" fill="#3e3419" opacity="0.24"/>
    </g>
    <g transform="translate(-784 -914)">
      <circle id="Ellipse_1-58" data-name="Ellipse 1" cx="4" cy="4" r="4" transform="translate(804 964)" fill="#3e3419" opacity="0.24"/>
    </g>
    <g transform="translate(-774 -914)">
      <circle id="Ellipse_1-59" data-name="Ellipse 1" cx="4" cy="4" r="4" transform="translate(804 964)" fill="#3e3419" opacity="0.24"/>
    </g>
    <g transform="translate(-764 -914)">
      <circle id="Ellipse_1-60" data-name="Ellipse 1" cx="4" cy="4" r="4" transform="translate(804 964)" fill="#3e3419" opacity="0.24"/>
    </g>
    <g transform="translate(-754 -914)">
      <circle id="Ellipse_1-61" data-name="Ellipse 1" cx="4" cy="4" r="4" transform="translate(804 964)" fill="#3e3419" opacity="0.24"/>
    </g>
    <g transform="translate(-744 -914)">
      <circle id="Ellipse_1-62" data-name="Ellipse 1" cx="4" cy="4" r="4" transform="translate(804 964)" fill="#3e3419" opacity="0.24"/>
    </g>
    <g transform="translate(-734 -914)">
      <circle id="Ellipse_1-63" data-name="Ellipse 1" cx="4" cy="4" r="4" transform="translate(804 964)" fill="#3e3419" opacity="0.24"/>
    </g>
    <g transform="translate(-724 -914)">
      <circle id="Ellipse_1-64" data-name="Ellipse 1" cx="4" cy="4" r="4" transform="translate(804 964)" fill="#3e3419" opacity="0.24"/>
    </g>
    <g transform="translate(-714 -914)">
      <circle id="Ellipse_1-65" data-name="Ellipse 1" cx="4" cy="4" r="4" transform="translate(804 964)" fill="#3e3419" opacity="0.24"/>
    </g>
    <g transform="translate(-704 -914)">
      <circle id="Ellipse_1-66" data-name="Ellipse 1" cx="4" cy="4" r="4" transform="translate(804 964)" fill="#3e3419" opacity="0.24"/>
    </g>
    <g transform="translate(-804 -904)">
      <circle id="Ellipse_1-67" data-name="Ellipse 1" cx="4" cy="4" r="4" transform="translate(804 964)" fill="#3e3419" opacity="0.24"/>
    </g>
    <g transform="translate(-794 -904)">
      <circle id="Ellipse_1-68" data-name="Ellipse 1" cx="4" cy="4" r="4" transform="translate(804 964)" fill="#3e3419" opacity="0.24"/>
    </g>
    <g transform="translate(-784 -904)">
      <circle id="Ellipse_1-69" data-name="Ellipse 1" cx="4" cy="4" r="4" transform="translate(804 964)" fill="#3e3419" opacity="0.24"/>
    </g>
    <g transform="translate(-774 -904)">
      <circle id="Ellipse_1-70" data-name="Ellipse 1" cx="4" cy="4" r="4" transform="translate(804 964)" fill="#3e3419" opacity="0.24"/>
    </g>
    <g transform="translate(-764 -904)">
      <circle id="Ellipse_1-71" data-name="Ellipse 1" cx="4" cy="4" r="4" transform="translate(804 964)" fill="#3e3419" opacity="0.24"/>
    </g>
    <g transform="translate(-754 -904)">
      <circle id="Ellipse_1-72" data-name="Ellipse 1" cx="4" cy="4" r="4" transform="translate(804 964)" fill="#3e3419" opacity="0.24"/>
    </g>
    <g transform="translate(-744 -904)">
      <circle id="Ellipse_1-73" data-name="Ellipse 1" cx="4" cy="4" r="4" transform="translate(804 964)" fill="#3e3419" opacity="0.24"/>
    </g>
    <g transform="translate(-734 -904)">
      <circle id="Ellipse_1-74" data-name="Ellipse 1" cx="4" cy="4" r="4" transform="translate(804 964)" fill="#3e3419" opacity="0.24"/>
    </g>
    <g transform="translate(-724 -904)">
      <circle id="Ellipse_1-75" data-name="Ellipse 1" cx="4" cy="4" r="4" transform="translate(804 964)" fill="#3e3419" opacity="0.24"/>
    </g>
    <g transform="translate(-714 -904)">
      <circle id="Ellipse_1-76" data-name="Ellipse 1" cx="4" cy="4" r="4" transform="translate(804 964)" fill="#3e3419" opacity="0.24"/>
    </g>
    <g transform="translate(-704 -904)">
      <circle id="Ellipse_1-77" data-name="Ellipse 1" cx="4" cy="4" r="4" transform="translate(804 964)" fill="#3e3419" opacity="0.24"/>
    </g>
    <g transform="translate(-804 -894)">
      <circle id="Ellipse_1-78" data-name="Ellipse 1" cx="4" cy="4" r="4" transform="translate(804 964)" fill="#3e3419" opacity="0.24"/>
    </g>
    <g transform="translate(-794 -894)">
      <circle id="Ellipse_1-79" data-name="Ellipse 1" cx="4" cy="4" r="4" transform="translate(804 964)" fill="#3e3419" opacity="0.24"/>
    </g>
    <g transform="translate(-784 -894)">
      <circle id="Ellipse_1-80" data-name="Ellipse 1" cx="4" cy="4" r="4" transform="translate(804 964)" fill="#3e3419" opacity="0.24"/>
    </g>
    <g transform="translate(-774 -894)">
      <circle id="Ellipse_1-81" data-name="Ellipse 1" cx="4" cy="4" r="4" transform="translate(804 964)" fill="#3e3419" opacity="0.24"/>
    </g>
    <g transform="translate(-764 -894)">
      <circle id="Ellipse_1-82" data-name="Ellipse 1" cx="4" cy="4" r="4" transform="translate(804 964)" fill="#3e3419" opacity="0.24"/>
    </g>
    <g transform="translate(-754 -894)">
      <circle id="Ellipse_1-83" data-name="Ellipse 1" cx="4" cy="4" r="4" transform="translate(804 964)" fill="#3e3419" opacity="0.24"/>
    </g>
    <g transform="translate(-744 -894)">
      <circle id="Ellipse_1-84" data-name="Ellipse 1" cx="4" cy="4" r="4" transform="translate(804 964)" fill="#3e3419" opacity="0.24"/>
    </g>
    <g transform="translate(-734 -894)">
      <circle id="Ellipse_1-85" data-name="Ellipse 1" cx="4" cy="4" r="4" transform="translate(804 964)" fill="#3e3419" opacity="0.24"/>
    </g>
    <g transform="translate(-724 -894)">
      <circle id="Ellipse_1-86" data-name="Ellipse 1" cx="4" cy="4" r="4" transform="translate(804 964)" fill="#3e3419" opacity="0.24"/>
    </g>
    <g transform="translate(-714 -894)">
      <circle id="Ellipse_1-87" data-name="Ellipse 1" cx="4" cy="4" r="4" transform="translate(804 964)" fill="#3e3419" opacity="0.24"/>
    </g>
    <g transform="translate(-704 -894)">
      <circle id="Ellipse_1-88" data-name="Ellipse 1" cx="4" cy="4" r="4" transform="translate(804 964)" fill="#3e3419" opacity="0.24"/>
    </g>
    <g transform="translate(-804 -884)">
      <circle id="Ellipse_1-89" data-name="Ellipse 1" cx="4" cy="4" r="4" transform="translate(804 964)" fill="#3e3419" opacity="0.24"/>
    </g>
    <g transform="translate(-794 -884)">
      <circle id="Ellipse_1-90" data-name="Ellipse 1" cx="4" cy="4" r="4" transform="translate(804 964)" fill="#3e3419" opacity="0.24"/>
    </g>
    <g transform="translate(-784 -884)">
      <circle id="Ellipse_1-91" data-name="Ellipse 1" cx="4" cy="4" r="4" transform="translate(804 964)" fill="#3e3419" opacity="0.24"/>
    </g>
    <g transform="translate(-774 -884)">
      <circle id="Ellipse_1-92" data-name="Ellipse 1" cx="4" cy="4" r="4" transform="translate(804 964)" fill="#3e3419" opacity="0.24"/>
    </g>
    <g transform="translate(-764 -884)">
      <circle id="Ellipse_1-93" data-name="Ellipse 1" cx="4" cy="4" r="4" transform="translate(804 964)" fill="#3e3419" opacity="0.24"/>
    </g>
    <g transform="translate(-754 -884)">
      <circle id="Ellipse_1-94" data-name="Ellipse 1" cx="4" cy="4" r="4" transform="translate(804 964)" fill="#3e3419" opacity="0.24"/>
    </g>
    <g transform="translate(-744 -884)">
      <circle id="Ellipse_1-95" data-name="Ellipse 1" cx="4" cy="4" r="4" transform="translate(804 964)" fill="#3e3419" opacity="0.24"/>
    </g>
    <g transform="translate(-734 -884)">
      <circle id="Ellipse_1-96" data-name="Ellipse 1" cx="4" cy="4" r="4" transform="translate(804 964)" fill="#3e3419" opacity="0.24"/>
    </g>
    <g transform="translate(-724 -884)">
      <circle id="Ellipse_1-97" data-name="Ellipse 1" cx="4" cy="4" r="4" transform="translate(804 964)" fill="#3e3419" opacity="0.24"/>
    </g>
    <g transform="translate(-714 -884)">
      <circle id="Ellipse_1-98" data-name="Ellipse 1" cx="4" cy="4" r="4" transform="translate(804 964)" fill="#3e3419" opacity="0.24"/>
    </g>
    <g transform="translate(-704 -884)">
      <circle id="Ellipse_1-99" data-name="Ellipse 1" cx="4" cy="4" r="4" transform="translate(804 964)" fill="#3e3419" opacity="0.24"/>
    </g>
    <g transform="translate(-804 -874)">
      <circle id="Ellipse_1-100" data-name="Ellipse 1" cx="4" cy="4" r="4" transform="translate(804 964)" fill="#3e3419" opacity="0.24"/>
    </g>
    <g transform="translate(-794 -874)">
      <circle id="Ellipse_1-101" data-name="Ellipse 1" cx="4" cy="4" r="4" transform="translate(804 964)" fill="#3e3419" opacity="0.24"/>
    </g>
    <g transform="translate(-784 -874)">
      <circle id="Ellipse_1-102" data-name="Ellipse 1" cx="4" cy="4" r="4" transform="translate(804 964)" fill="#3e3419" opacity="0.24"/>
    </g>
    <g transform="translate(-774 -874)">
      <circle id="Ellipse_1-103" data-name="Ellipse 1" cx="4" cy="4" r="4" transform="translate(804 964)" fill="#3e3419" opacity="0.24"/>
    </g>
    <g transform="translate(-764 -874)">
      <circle id="Ellipse_1-104" data-name="Ellipse 1" cx="4" cy="4" r="4" transform="translate(804 964)" fill="#3e3419" opacity="0.24"/>
    </g>
    <g transform="translate(-754 -874)">
      <circle id="Ellipse_1-105" data-name="Ellipse 1" cx="4" cy="4" r="4" transform="translate(804 964)" fill="#3e3419" opacity="0.24"/>
    </g>
    <g transform="translate(-744 -874)">
      <circle id="Ellipse_1-106" data-name="Ellipse 1" cx="4" cy="4" r="4" transform="translate(804 964)" fill="#3e3419" opacity="0.24"/>
    </g>
    <g transform="translate(-734 -874)">
      <circle id="Ellipse_1-107" data-name="Ellipse 1" cx="4" cy="4" r="4" transform="translate(804 964)" fill="#3e3419" opacity="0.24"/>
    </g>
    <g transform="translate(-724 -874)">
      <circle id="Ellipse_1-108" data-name="Ellipse 1" cx="4" cy="4" r="4" transform="translate(804 964)" fill="#3e3419" opacity="0.24"/>
    </g>
    <g transform="translate(-714 -874)">
      <circle id="Ellipse_1-109" data-name="Ellipse 1" cx="4" cy="4" r="4" transform="translate(804 964)" fill="#3e3419" opacity="0.24"/>
    </g>
    <g transform="translate(-704 -874)">
      <circle id="Ellipse_1-110" data-name="Ellipse 1" cx="4" cy="4" r="4" transform="translate(804 964)" fill="#3e3419" opacity="0.24"/>
    </g>
    <g transform="translate(-804 -864)">
      <circle id="Ellipse_1-111" data-name="Ellipse 1" cx="4" cy="4" r="4" transform="translate(804 964)" fill="#3e3419" opacity="0.24"/>
    </g>
    <g transform="translate(-794 -864)">
      <circle id="Ellipse_1-112" data-name="Ellipse 1" cx="4" cy="4" r="4" transform="translate(804 964)" fill="#3e3419" opacity="0.24"/>
    </g>
    <g transform="translate(-784 -864)">
      <circle id="Ellipse_1-113" data-name="Ellipse 1" cx="4" cy="4" r="4" transform="translate(804 964)" fill="#3e3419" opacity="0.24"/>
    </g>
    <g transform="translate(-774 -864)">
      <circle id="Ellipse_1-114" data-name="Ellipse 1" cx="4" cy="4" r="4" transform="translate(804 964)" fill="#3e3419" opacity="0.24"/>
    </g>
    <g transform="translate(-764 -864)">
      <circle id="Ellipse_1-115" data-name="Ellipse 1" cx="4" cy="4" r="4" transform="translate(804 964)" fill="#3e3419" opacity="0.24"/>
    </g>
    <g transform="translate(-754 -864)">
      <circle id="Ellipse_1-116" data-name="Ellipse 1" cx="4" cy="4" r="4" transform="translate(804 964)" fill="#3e3419" opacity="0.24"/>
    </g>
    <g transform="translate(-744 -864)">
      <circle id="Ellipse_1-117" data-name="Ellipse 1" cx="4" cy="4" r="4" transform="translate(804 964)" fill="#3e3419" opacity="0.24"/>
    </g>
    <g transform="translate(-734 -864)">
      <circle id="Ellipse_1-118" data-name="Ellipse 1" cx="4" cy="4" r="4" transform="translate(804 964)" fill="#3e3419" opacity="0.24"/>
    </g>
    <g transform="translate(-724 -864)">
      <circle id="Ellipse_1-119" data-name="Ellipse 1" cx="4" cy="4" r="4" transform="translate(804 964)" fill="#3e3419" opacity="0.24"/>
    </g>
    <g transform="translate(-714 -864)">
      <circle id="Ellipse_1-120" data-name="Ellipse 1" cx="4" cy="4" r="4" transform="translate(804 964)" fill="#3e3419" opacity="0.24"/>
    </g>
    <g transform="translate(-704 -864)">
      <circle id="Ellipse_1-121" data-name="Ellipse 1" cx="4" cy="4" r="4" transform="translate(804 964)" fill="#3e3419" opacity="0.24"/>
    </g>
    <g transform="translate(-804 -854)">
      <circle id="Ellipse_1-122" data-name="Ellipse 1" cx="4" cy="4" r="4" transform="translate(804 964)" fill="#3e3419" opacity="0.24"/>
    </g>
    <g transform="translate(-794 -854)">
      <circle id="Ellipse_1-123" data-name="Ellipse 1" cx="4" cy="4" r="4" transform="translate(804 964)" fill="#3e3419" opacity="0.24"/>
    </g>
    <g transform="translate(-784 -854)">
      <circle id="Ellipse_1-124" data-name="Ellipse 1" cx="4" cy="4" r="4" transform="translate(804 964)" fill="#3e3419" opacity="0.24"/>
    </g>
    <g transform="translate(-774 -854)">
      <circle id="Ellipse_1-125" data-name="Ellipse 1" cx="4" cy="4" r="4" transform="translate(804 964)" fill="#3e3419" opacity="0.24"/>
    </g>
    <g transform="translate(-764 -854)">
      <circle id="Ellipse_1-126" data-name="Ellipse 1" cx="4" cy="4" r="4" transform="translate(804 964)" fill="#3e3419" opacity="0.24"/>
    </g>
    <g transform="translate(-754 -854)">
      <circle id="Ellipse_1-127" data-name="Ellipse 1" cx="4" cy="4" r="4" transform="translate(804 964)" fill="#3e3419" opacity="0.24"/>
    </g>
    <g transform="translate(-744 -854)">
      <circle id="Ellipse_1-128" data-name="Ellipse 1" cx="4" cy="4" r="4" transform="translate(804 964)" fill="#3e3419" opacity="0.24"/>
    </g>
    <g transform="translate(-734 -854)">
      <circle id="Ellipse_1-129" data-name="Ellipse 1" cx="4" cy="4" r="4" transform="translate(804 964)" fill="#3e3419" opacity="0.24"/>
    </g>
    <g transform="translate(-724 -854)">
      <circle id="Ellipse_1-130" data-name="Ellipse 1" cx="4" cy="4" r="4" transform="translate(804 964)" fill="#3e3419" opacity="0.24"/>
    </g>
    <g transform="translate(-714 -854)">
      <circle id="Ellipse_1-131" data-name="Ellipse 1" cx="4" cy="4" r="4" transform="translate(804 964)" fill="#3e3419" opacity="0.24"/>
    </g>
    <g transform="translate(-704 -854)">
      <circle id="Ellipse_1-132" data-name="Ellipse 1" cx="4" cy="4" r="4" transform="translate(804 964)" fill="#3e3419" opacity="0.24"/>
    </g>
    <g transform="translate(-804 -844)">
      <circle id="Ellipse_1-133" data-name="Ellipse 1" cx="4" cy="4" r="4" transform="translate(804 964)" fill="#3e3419" opacity="0.24"/>
    </g>
    <g transform="translate(-794 -844)">
      <circle id="Ellipse_1-134" data-name="Ellipse 1" cx="4" cy="4" r="4" transform="translate(804 964)" fill="#3e3419" opacity="0.24"/>
    </g>
    <g transform="translate(-784 -844)">
      <circle id="Ellipse_1-135" data-name="Ellipse 1" cx="4" cy="4" r="4" transform="translate(804 964)" fill="#3e3419" opacity="0.24"/>
    </g>
    <g transform="translate(-774 -844)">
      <circle id="Ellipse_1-136" data-name="Ellipse 1" cx="4" cy="4" r="4" transform="translate(804 964)" fill="#3e3419" opacity="0.24"/>
    </g>
    <g transform="translate(-764 -844)">
      <circle id="Ellipse_1-137" data-name="Ellipse 1" cx="4" cy="4" r="4" transform="translate(804 964)" fill="#3e3419" opacity="0.24"/>
    </g>
    <g transform="translate(-754 -844)">
      <circle id="Ellipse_1-138" data-name="Ellipse 1" cx="4" cy="4" r="4" transform="translate(804 964)" fill="#3e3419" opacity="0.24"/>
    </g>
    <g transform="translate(-744 -844)">
      <circle id="Ellipse_1-139" data-name="Ellipse 1" cx="4" cy="4" r="4" transform="translate(804 964)" fill="#3e3419" opacity="0.24"/>
    </g>
    <g transform="translate(-734 -844)">
      <circle id="Ellipse_1-140" data-name="Ellipse 1" cx="4" cy="4" r="4" transform="translate(804 964)" fill="#3e3419" opacity="0.24"/>
    </g>
    <g transform="translate(-724 -844)">
      <circle id="Ellipse_1-141" data-name="Ellipse 1" cx="4" cy="4" r="4" transform="translate(804 964)" fill="#3e3419" opacity="0.24"/>
    </g>
    <g transform="translate(-714 -844)">
      <circle id="Ellipse_1-142" data-name="Ellipse 1" cx="4" cy="4" r="4" transform="translate(804 964)" fill="#3e3419" opacity="0.24"/>
    </g>
    <g transform="translate(-704 -844)">
      <circle id="Ellipse_1-143" data-name="Ellipse 1" cx="4" cy="4" r="4" transform="translate(804 964)" fill="#3e3419" opacity="0.24"/>
    </g>
    <g transform="translate(-804 -834)">
      <circle id="Ellipse_1-144" data-name="Ellipse 1" cx="4" cy="4" r="4" transform="translate(804 964)" fill="#3e3419" opacity="0.24"/>
    </g>
    <g transform="translate(-794 -834)">
      <circle id="Ellipse_1-145" data-name="Ellipse 1" cx="4" cy="4" r="4" transform="translate(804 964)" fill="#3e3419" opacity="0.24"/>
    </g>
    <g transform="translate(-784 -834)">
      <circle id="Ellipse_1-146" data-name="Ellipse 1" cx="4" cy="4" r="4" transform="translate(804 964)" fill="#3e3419" opacity="0.24"/>
    </g>
    <g transform="translate(-774 -834)">
      <circle id="Ellipse_1-147" data-name="Ellipse 1" cx="4" cy="4" r="4" transform="translate(804 964)" fill="#3e3419" opacity="0.24"/>
    </g>
    <g transform="translate(-764 -834)">
      <circle id="Ellipse_1-148" data-name="Ellipse 1" cx="4" cy="4" r="4" transform="translate(804 964)" fill="#3e3419" opacity="0.24"/>
    </g>
    <g transform="translate(-754 -834)">
      <circle id="Ellipse_1-149" data-name="Ellipse 1" cx="4" cy="4" r="4" transform="translate(804 964)" fill="#3e3419" opacity="0.24"/>
    </g>
    <g transform="translate(-744 -834)">
      <circle id="Ellipse_1-150" data-name="Ellipse 1" cx="4" cy="4" r="4" transform="translate(804 964)" fill="#3e3419" opacity="0.24"/>
    </g>
    <g transform="translate(-734 -834)">
      <circle id="Ellipse_1-151" data-name="Ellipse 1" cx="4" cy="4" r="4" transform="translate(804 964)" fill="#3e3419" opacity="0.24"/>
    </g>
    <g transform="translate(-724 -834)">
      <circle id="Ellipse_1-152" data-name="Ellipse 1" cx="4" cy="4" r="4" transform="translate(804 964)" fill="#3e3419" opacity="0.24"/>
    </g>
    <g transform="translate(-714 -834)">
      <circle id="Ellipse_1-153" data-name="Ellipse 1" cx="4" cy="4" r="4" transform="translate(804 964)" fill="#3e3419" opacity="0.24"/>
    </g>
    <g transform="translate(-704 -834)">
      <circle id="Ellipse_1-154" data-name="Ellipse 1" cx="4" cy="4" r="4" transform="translate(804 964)" fill="#3e3419" opacity="0.24"/>
    </g>
    <g transform="translate(-804 -824)">
      <circle id="Ellipse_1-155" data-name="Ellipse 1" cx="4" cy="4" r="4" transform="translate(804 964)" fill="#3e3419" opacity="0.24"/>
    </g>
    <g transform="translate(-794 -824)">
      <circle id="Ellipse_1-156" data-name="Ellipse 1" cx="4" cy="4" r="4" transform="translate(804 964)" fill="#3e3419" opacity="0.24"/>
    </g>
    <g transform="translate(-784 -824)">
      <circle id="Ellipse_1-157" data-name="Ellipse 1" cx="4" cy="4" r="4" transform="translate(804 964)" fill="#3e3419" opacity="0.24"/>
    </g>
    <g transform="translate(-774 -824)">
      <circle id="Ellipse_1-158" data-name="Ellipse 1" cx="4" cy="4" r="4" transform="translate(804 964)" fill="#3e3419" opacity="0.24"/>
    </g>
    <g transform="translate(-764 -824)">
      <circle id="Ellipse_1-159" data-name="Ellipse 1" cx="4" cy="4" r="4" transform="translate(804 964)" fill="#3e3419" opacity="0.24"/>
    </g>
    <g transform="translate(-754 -824)">
      <circle id="Ellipse_1-160" data-name="Ellipse 1" cx="4" cy="4" r="4" transform="translate(804 964)" fill="#3e3419" opacity="0.24"/>
    </g>
    <g transform="translate(-744 -824)">
      <circle id="Ellipse_1-161" data-name="Ellipse 1" cx="4" cy="4" r="4" transform="translate(804 964)" fill="#3e3419" opacity="0.24"/>
    </g>
    <g transform="translate(-734 -824)">
      <circle id="Ellipse_1-162" data-name="Ellipse 1" cx="4" cy="4" r="4" transform="translate(804 964)" fill="#3e3419" opacity="0.24"/>
    </g>
    <g transform="translate(-724 -824)">
      <circle id="Ellipse_1-163" data-name="Ellipse 1" cx="4" cy="4" r="4" transform="translate(804 964)" fill="#3e3419" opacity="0.24"/>
    </g>
    <g transform="translate(-714 -824)">
      <circle id="Ellipse_1-164" data-name="Ellipse 1" cx="4" cy="4" r="4" transform="translate(804 964)" fill="#3e3419" opacity="0.24"/>
    </g>
    <g transform="translate(-704 -824)">
      <circle id="Ellipse_1-165" data-name="Ellipse 1" cx="4" cy="4" r="4" transform="translate(804 964)" fill="#3e3419" opacity="0.24"/>
    </g>
    <g transform="translate(-804 -814)">
      <circle id="Ellipse_1-166" data-name="Ellipse 1" cx="4" cy="4" r="4" transform="translate(804 964)" fill="#3e3419" opacity="0.24"/>
    </g>
    <g transform="translate(-794 -814)">
      <circle id="Ellipse_1-167" data-name="Ellipse 1" cx="4" cy="4" r="4" transform="translate(804 964)" fill="#3e3419" opacity="0.24"/>
    </g>
    <g transform="translate(-784 -814)">
      <circle id="Ellipse_1-168" data-name="Ellipse 1" cx="4" cy="4" r="4" transform="translate(804 964)" fill="#3e3419" opacity="0.24"/>
    </g>
    <g transform="translate(-774 -814)">
      <circle id="Ellipse_1-169" data-name="Ellipse 1" cx="4" cy="4" r="4" transform="translate(804 964)" fill="#3e3419" opacity="0.24"/>
    </g>
    <g transform="translate(-764 -814)">
      <circle id="Ellipse_1-170" data-name="Ellipse 1" cx="4" cy="4" r="4" transform="translate(804 964)" fill="#3e3419" opacity="0.24"/>
    </g>
    <g transform="translate(-754 -814)">
      <circle id="Ellipse_1-171" data-name="Ellipse 1" cx="4" cy="4" r="4" transform="translate(804 964)" fill="#3e3419" opacity="0.24"/>
    </g>
    <g transform="translate(-744 -814)">
      <circle id="Ellipse_1-172" data-name="Ellipse 1" cx="4" cy="4" r="4" transform="translate(804 964)" fill="#3e3419" opacity="0.24"/>
    </g>
    <g transform="translate(-734 -814)">
      <circle id="Ellipse_1-173" data-name="Ellipse 1" cx="4" cy="4" r="4" transform="translate(804 964)" fill="#3e3419" opacity="0.24"/>
    </g>
    <g transform="translate(-724 -814)">
      <circle id="Ellipse_1-174" data-name="Ellipse 1" cx="4" cy="4" r="4" transform="translate(804 964)" fill="#3e3419" opacity="0.24"/>
    </g>
    <g transform="translate(-714 -814)">
      <circle id="Ellipse_1-175" data-name="Ellipse 1" cx="4" cy="4" r="4" transform="translate(804 964)" fill="#3e3419" opacity="0.24"/>
    </g>
    <g transform="translate(-704 -814)">
      <circle id="Ellipse_1-176" data-name="Ellipse 1" cx="4" cy="4" r="4" transform="translate(804 964)" fill="#3e3419" opacity="0.24"/>
    </g>
    <g transform="translate(-804 -804)">
      <circle id="Ellipse_1-177" data-name="Ellipse 1" cx="4" cy="4" r="4" transform="translate(804 964)" fill="#3e3419" opacity="0.24"/>
    </g>
    <g transform="translate(-794 -804)">
      <circle id="Ellipse_1-178" data-name="Ellipse 1" cx="4" cy="4" r="4" transform="translate(804 964)" fill="#3e3419" opacity="0.24"/>
    </g>
    <g transform="translate(-784 -804)">
      <circle id="Ellipse_1-179" data-name="Ellipse 1" cx="4" cy="4" r="4" transform="translate(804 964)" fill="#3e3419" opacity="0.24"/>
    </g>
    <g transform="translate(-774 -804)">
      <circle id="Ellipse_1-180" data-name="Ellipse 1" cx="4" cy="4" r="4" transform="translate(804 964)" fill="#3e3419" opacity="0.24"/>
    </g>
    <g transform="translate(-764 -804)">
      <circle id="Ellipse_1-181" data-name="Ellipse 1" cx="4" cy="4" r="4" transform="translate(804 964)" fill="#3e3419" opacity="0.24"/>
    </g>
    <g transform="translate(-754 -804)">
      <circle id="Ellipse_1-182" data-name="Ellipse 1" cx="4" cy="4" r="4" transform="translate(804 964)" fill="#3e3419" opacity="0.24"/>
    </g>
    <g transform="translate(-744 -804)">
      <circle id="Ellipse_1-183" data-name="Ellipse 1" cx="4" cy="4" r="4" transform="translate(804 964)" fill="#3e3419" opacity="0.24"/>
    </g>
    <g transform="translate(-734 -804)">
      <circle id="Ellipse_1-184" data-name="Ellipse 1" cx="4" cy="4" r="4" transform="translate(804 964)" fill="#3e3419" opacity="0.24"/>
    </g>
    <g transform="translate(-724 -804)">
      <circle id="Ellipse_1-185" data-name="Ellipse 1" cx="4" cy="4" r="4" transform="translate(804 964)" fill="#3e3419" opacity="0.24"/>
    </g>
    <g transform="translate(-714 -804)">
      <circle id="Ellipse_1-186" data-name="Ellipse 1" cx="4" cy="4" r="4" transform="translate(804 964)" fill="#3e3419" opacity="0.24"/>
    </g>
    <g transform="translate(-704 -804)">
      <circle id="Ellipse_1-187" data-name="Ellipse 1" cx="4" cy="4" r="4" transform="translate(804 964)" fill="#3e3419" opacity="0.24"/>
    </g>
    <g transform="translate(-804 -794)">
      <circle id="Ellipse_1-188" data-name="Ellipse 1" cx="4" cy="4" r="4" transform="translate(804 964)" fill="#3e3419" opacity="0.24"/>
    </g>
    <g transform="translate(-794 -794)">
      <circle id="Ellipse_1-189" data-name="Ellipse 1" cx="4" cy="4" r="4" transform="translate(804 964)" fill="#3e3419" opacity="0.24"/>
    </g>
    <g transform="translate(-784 -794)">
      <circle id="Ellipse_1-190" data-name="Ellipse 1" cx="4" cy="4" r="4" transform="translate(804 964)" fill="#3e3419" opacity="0.24"/>
    </g>
    <g transform="translate(-774 -794)">
      <circle id="Ellipse_1-191" data-name="Ellipse 1" cx="4" cy="4" r="4" transform="translate(804 964)" fill="#3e3419" opacity="0.24"/>
    </g>
    <g transform="translate(-764 -794)">
      <circle id="Ellipse_1-192" data-name="Ellipse 1" cx="4" cy="4" r="4" transform="translate(804 964)" fill="#3e3419" opacity="0.24"/>
    </g>
    <g transform="translate(-754 -794)">
      <circle id="Ellipse_1-193" data-name="Ellipse 1" cx="4" cy="4" r="4" transform="translate(804 964)" fill="#3e3419" opacity="0.24"/>
    </g>
    <g transform="translate(-744 -794)">
      <circle id="Ellipse_1-194" data-name="Ellipse 1" cx="4" cy="4" r="4" transform="translate(804 964)" fill="#3e3419" opacity="0.24"/>
    </g>
    <g transform="translate(-734 -794)">
      <circle id="Ellipse_1-195" data-name="Ellipse 1" cx="4" cy="4" r="4" transform="translate(804 964)" fill="#3e3419" opacity="0.24"/>
    </g>
    <g transform="translate(-724 -794)">
      <circle id="Ellipse_1-196" data-name="Ellipse 1" cx="4" cy="4" r="4" transform="translate(804 964)" fill="#3e3419" opacity="0.24"/>
    </g>
    <g transform="translate(-714 -794)">
      <circle id="Ellipse_1-197" data-name="Ellipse 1" cx="4" cy="4" r="4" transform="translate(804 964)" fill="#3e3419" opacity="0.24"/>
    </g>
    <g transform="translate(-704 -794)">
      <circle id="Ellipse_1-198" data-name="Ellipse 1" cx="4" cy="4" r="4" transform="translate(804 964)" fill="#3e3419" opacity="0.24"/>
    </g>
    <g transform="translate(-804 -784)">
      <circle id="Ellipse_1-199" data-name="Ellipse 1" cx="4" cy="4" r="4" transform="translate(804 964)" fill="#3e3419" opacity="0.24"/>
    </g>
    <g transform="translate(-794 -784)">
      <circle id="Ellipse_1-200" data-name="Ellipse 1" cx="4" cy="4" r="4" transform="translate(804 964)" fill="#3e3419" opacity="0.24"/>
    </g>
    <g transform="translate(-784 -784)">
      <circle id="Ellipse_1-201" data-name="Ellipse 1" cx="4" cy="4" r="4" transform="translate(804 964)" fill="#3e3419" opacity="0.24"/>
    </g>
    <g transform="translate(-774 -784)">
      <circle id="Ellipse_1-202" data-name="Ellipse 1" cx="4" cy="4" r="4" transform="translate(804 964)" fill="#3e3419" opacity="0.24"/>
    </g>
    <g transform="translate(-764 -784)">
      <circle id="Ellipse_1-203" data-name="Ellipse 1" cx="4" cy="4" r="4" transform="translate(804 964)" fill="#3e3419" opacity="0.24"/>
    </g>
    <g transform="translate(-754 -784)">
      <circle id="Ellipse_1-204" data-name="Ellipse 1" cx="4" cy="4" r="4" transform="translate(804 964)" fill="#3e3419" opacity="0.24"/>
    </g>
    <g transform="translate(-744 -784)">
      <circle id="Ellipse_1-205" data-name="Ellipse 1" cx="4" cy="4" r="4" transform="translate(804 964)" fill="#3e3419" opacity="0.24"/>
    </g>
    <g transform="translate(-734 -784)">
      <circle id="Ellipse_1-206" data-name="Ellipse 1" cx="4" cy="4" r="4" transform="translate(804 964)" fill="#3e3419" opacity="0.24"/>
    </g>
    <g transform="translate(-724 -784)">
      <circle id="Ellipse_1-207" data-name="Ellipse 1" cx="4" cy="4" r="4" transform="translate(804 964)" fill="#3e3419" opacity="0.24"/>
    </g>
    <g transform="translate(-714 -784)">
      <circle id="Ellipse_1-208" data-name="Ellipse 1" cx="4" cy="4" r="4" transform="translate(804 964)" fill="#3e3419" opacity="0.24"/>
    </g>
    <g transform="translate(-704 -784)">
      <circle id="Ellipse_1-209" data-name="Ellipse 1" cx="4" cy="4" r="4" transform="translate(804 964)" fill="#3e3419" opacity="0.24"/>
    </g>
    <g transform="translate(-804 -774)">
      <circle id="Ellipse_1-210" data-name="Ellipse 1" cx="4" cy="4" r="4" transform="translate(804 964)" fill="#3e3419" opacity="0.24"/>
    </g>
    <g transform="translate(-794 -774)">
      <circle id="Ellipse_1-211" data-name="Ellipse 1" cx="4" cy="4" r="4" transform="translate(804 964)" fill="#3e3419" opacity="0.24"/>
    </g>
    <g transform="translate(-784 -774)">
      <circle id="Ellipse_1-212" data-name="Ellipse 1" cx="4" cy="4" r="4" transform="translate(804 964)" fill="#3e3419" opacity="0.24"/>
    </g>
    <g transform="translate(-774 -774)">
      <circle id="Ellipse_1-213" data-name="Ellipse 1" cx="4" cy="4" r="4" transform="translate(804 964)" fill="#3e3419" opacity="0.24"/>
    </g>
    <g transform="translate(-764 -774)">
      <circle id="Ellipse_1-214" data-name="Ellipse 1" cx="4" cy="4" r="4" transform="translate(804 964)" fill="#3e3419" opacity="0.24"/>
    </g>
    <g transform="translate(-754 -774)">
      <circle id="Ellipse_1-215" data-name="Ellipse 1" cx="4" cy="4" r="4" transform="translate(804 964)" fill="#3e3419" opacity="0.24"/>
    </g>
    <g transform="translate(-744 -774)">
      <circle id="Ellipse_1-216" data-name="Ellipse 1" cx="4" cy="4" r="4" transform="translate(804 964)" fill="#3e3419" opacity="0.24"/>
    </g>
    <g transform="translate(-734 -774)">
      <circle id="Ellipse_1-217" data-name="Ellipse 1" cx="4" cy="4" r="4" transform="translate(804 964)" fill="#3e3419" opacity="0.24"/>
    </g>
    <g transform="translate(-724 -774)">
      <circle id="Ellipse_1-218" data-name="Ellipse 1" cx="4" cy="4" r="4" transform="translate(804 964)" fill="#3e3419" opacity="0.24"/>
    </g>
    <g transform="translate(-714 -774)">
      <circle id="Ellipse_1-219" data-name="Ellipse 1" cx="4" cy="4" r="4" transform="translate(804 964)" fill="#3e3419" opacity="0.24"/>
    </g>
    <g transform="translate(-704 -774)">
      <circle id="Ellipse_1-220" data-name="Ellipse 1" cx="4" cy="4" r="4" transform="translate(804 964)" fill="#3e3419" opacity="0.24"/>
    </g>
    <g transform="translate(-804 -764)">
      <circle id="Ellipse_1-221" data-name="Ellipse 1" cx="4" cy="4" r="4" transform="translate(804 964)" fill="#3e3419" opacity="0.24"/>
    </g>
    <g transform="translate(-794 -764)">
      <circle id="Ellipse_1-222" data-name="Ellipse 1" cx="4" cy="4" r="4" transform="translate(804 964)" fill="#3e3419" opacity="0.24"/>
    </g>
    <g transform="translate(-784 -764)">
      <circle id="Ellipse_1-223" data-name="Ellipse 1" cx="4" cy="4" r="4" transform="translate(804 964)" fill="#3e3419" opacity="0.24"/>
    </g>
    <g transform="translate(-774 -764)">
      <circle id="Ellipse_1-224" data-name="Ellipse 1" cx="4" cy="4" r="4" transform="translate(804 964)" fill="#3e3419" opacity="0.24"/>
    </g>
    <g transform="translate(-764 -764)">
      <circle id="Ellipse_1-225" data-name="Ellipse 1" cx="4" cy="4" r="4" transform="translate(804 964)" fill="#3e3419" opacity="0.24"/>
    </g>
    <g transform="translate(-754 -764)">
      <circle id="Ellipse_1-226" data-name="Ellipse 1" cx="4" cy="4" r="4" transform="translate(804 964)" fill="#3e3419" opacity="0.24"/>
    </g>
    <g transform="translate(-744 -764)">
      <circle id="Ellipse_1-227" data-name="Ellipse 1" cx="4" cy="4" r="4" transform="translate(804 964)" fill="#3e3419" opacity="0.24"/>
    </g>
    <g transform="translate(-734 -764)">
      <circle id="Ellipse_1-228" data-name="Ellipse 1" cx="4" cy="4" r="4" transform="translate(804 964)" fill="#3e3419" opacity="0.24"/>
    </g>
    <g transform="translate(-724 -764)">
      <circle id="Ellipse_1-229" data-name="Ellipse 1" cx="4" cy="4" r="4" transform="translate(804 964)" fill="#3e3419" opacity="0.24"/>
    </g>
    <g transform="translate(-714 -764)">
      <circle id="Ellipse_1-230" data-name="Ellipse 1" cx="4" cy="4" r="4" transform="translate(804 964)" fill="#3e3419" opacity="0.24"/>
    </g>
    <g transform="translate(-704 -764)">
      <circle id="Ellipse_1-231" data-name="Ellipse 1" cx="4" cy="4" r="4" transform="translate(804 964)" fill="#3e3419" opacity="0.24"/>
    </g>
    <g transform="translate(-804 -754)">
      <circle id="Ellipse_1-232" data-name="Ellipse 1" cx="4" cy="4" r="4" transform="translate(804 964)" fill="#3e3419" opacity="0.24"/>
    </g>
    <g transform="translate(-794 -754)">
      <circle id="Ellipse_1-233" data-name="Ellipse 1" cx="4" cy="4" r="4" transform="translate(804 964)" fill="#3e3419" opacity="0.24"/>
    </g>
    <g transform="translate(-784 -754)">
      <circle id="Ellipse_1-234" data-name="Ellipse 1" cx="4" cy="4" r="4" transform="translate(804 964)" fill="#3e3419" opacity="0.24"/>
    </g>
    <g transform="translate(-774 -754)">
      <circle id="Ellipse_1-235" data-name="Ellipse 1" cx="4" cy="4" r="4" transform="translate(804 964)" fill="#3e3419" opacity="0.24"/>
    </g>
    <g transform="translate(-764 -754)">
      <circle id="Ellipse_1-236" data-name="Ellipse 1" cx="4" cy="4" r="4" transform="translate(804 964)" fill="#3e3419" opacity="0.24"/>
    </g>
    <g transform="translate(-754 -754)">
      <circle id="Ellipse_1-237" data-name="Ellipse 1" cx="4" cy="4" r="4" transform="translate(804 964)" fill="#3e3419" opacity="0.24"/>
    </g>
    <g transform="translate(-744 -754)">
      <circle id="Ellipse_1-238" data-name="Ellipse 1" cx="4" cy="4" r="4" transform="translate(804 964)" fill="#3e3419" opacity="0.24"/>
    </g>
    <g transform="translate(-734 -754)">
      <circle id="Ellipse_1-239" data-name="Ellipse 1" cx="4" cy="4" r="4" transform="translate(804 964)" fill="#3e3419" opacity="0.24"/>
    </g>
    <g transform="translate(-724 -754)">
      <circle id="Ellipse_1-240" data-name="Ellipse 1" cx="4" cy="4" r="4" transform="translate(804 964)" fill="#3e3419" opacity="0.24"/>
    </g>
    <g transform="translate(-714 -754)">
      <circle id="Ellipse_1-241" data-name="Ellipse 1" cx="4" cy="4" r="4" transform="translate(804 964)" fill="#3e3419" opacity="0.24"/>
    </g>
    <g transform="translate(-704 -754)">
      <circle id="Ellipse_1-242" data-name="Ellipse 1" cx="4" cy="4" r="4" transform="translate(804 964)" fill="#3e3419" opacity="0.24"/>
    </g>
  </g>
</svg>
