<svg xmlns="http://www.w3.org/2000/svg" width="24.2" height="28.5" viewBox="0 0 24.2 28.5">
  <g id="Group_147" data-name="Group 147" transform="translate(-1658.5 -4336.25)">
    <g id="passport" transform="translate(1558.6 4326.25)">
      <path id="Path_173" data-name="Path 173" d="M122.31,14.009h-2.085V10.348c0-.191-.209-.348-.465-.348a.9.9,0,0,0-.132.012l-18.03,4c-.953.041-1.7.626-1.7,1.338V37.162c0,.741.806,1.338,1.791,1.338H122.31c.992,0,1.791-.6,1.791-1.338V15.347C124.1,14.605,123.294,14.009,122.31,14.009Zm-3.015-3.2V14H104.876Zm3.876,26.351c0,.353-.388.643-.86.643H101.691c-.473,0-.86-.29-.86-.643V15.347a.635.635,0,0,1,.426-.556l.008.017.473-.1H122.31c.473,0,.86.29.86.643Z" transform="translate(0)" fill="#3e3419"/>
      <path id="Path_174" data-name="Path 174" d="M175.111,377.7H163.889a.35.35,0,1,0,0,.7h11.222a.35.35,0,1,0,0-.7Z" transform="translate(-60.6 -346.4)" fill="#3e3419"/>
      <path id="Path_175" data-name="Path 175" d="M217.089,418h-6.124c-.256,0-.465.156-.465.348s.209.348.465.348h6.124c.256,0,.465-.156.465-.348S217.345,418,217.089,418Z" transform="translate(-105.027 -384.366)" fill="#3e3419"/>
      <path id="Path_176" data-name="Path 176" d="M172.7,153.6c-3.86,0-7,2.34-7,5.231s3.132,5.231,7,5.231,7-2.34,7-5.231S176.56,153.6,172.7,153.6Zm-2.124.985a5.277,5.277,0,0,0-1.357,1.529,5.912,5.912,0,0,1-.8-.5,6.551,6.551,0,0,1,2.155-1.031Zm-2.76,1.558a7.244,7.244,0,0,0,1.077.643,5.426,5.426,0,0,0-.372,1.7h-1.868A3.888,3.888,0,0,1,167.816,156.143Zm-1.163,3.03h1.868a5.426,5.426,0,0,0,.372,1.7,6.78,6.78,0,0,0-1.077.643A3.9,3.9,0,0,1,166.653,159.173Zm1.775,2.867a5.914,5.914,0,0,1,.8-.5,5.277,5.277,0,0,0,1.357,1.529A6.517,6.517,0,0,1,168.429,162.04Zm3.806,1.147a4.74,4.74,0,0,1-2.2-2,7.551,7.551,0,0,1,2.2-.446Zm0-3.145a8.939,8.939,0,0,0-2.5.481,5.091,5.091,0,0,1-.279-1.35h2.783Zm0-1.564h-2.783a5.09,5.09,0,0,1,.279-1.35,8.787,8.787,0,0,0,2.5.481Zm0-1.564a7.692,7.692,0,0,1-2.2-.446,4.8,4.8,0,0,1,2.2-2Zm4.744-1.3a5.384,5.384,0,0,1-.8.5,5.3,5.3,0,0,0-1.357-1.535A6.8,6.8,0,0,1,176.978,155.616Zm-3.814-1.147a4.828,4.828,0,0,1,2.209,2,7.552,7.552,0,0,1-2.209.446Zm0,3.145a8.84,8.84,0,0,0,2.512-.481,5.1,5.1,0,0,1,.279,1.344h-2.791Zm0,1.558h2.783a4.8,4.8,0,0,1-.279,1.344,8.84,8.84,0,0,0-2.512-.481v-.863Zm0,4.014v-2.45a7.551,7.551,0,0,1,2.209.446A4.8,4.8,0,0,1,173.165,163.187Zm1.659-.116a5.3,5.3,0,0,0,1.357-1.535,6.555,6.555,0,0,1,.8.5A6.561,6.561,0,0,1,174.824,163.071Zm2.76-1.558a6.451,6.451,0,0,0-1.077-.643,5.391,5.391,0,0,0,.372-1.691h1.868A3.9,3.9,0,0,1,177.583,161.513Zm-.705-3.035a5.391,5.391,0,0,0-.372-1.691,7.244,7.244,0,0,0,1.077-.643,3.889,3.889,0,0,1,1.163,2.334Z" transform="translate(-60.699 -135.282)" fill="#3e3419"/>
    </g>
    <g id="Group_146" data-name="Group 146" transform="translate(1671.45 4356.25)">
      <path id="Path_177" data-name="Path 177" d="M0,0H10.25V8.5H0Z" fill="none"/>
      <path id="Path_178" data-name="Path 178" d="M5.694,5.749l1.812,1.5-.6.5-.781-.647V9.083H5.267V7.1l-.781.648-.6-.5ZM5.694,2a2.849,2.849,0,0,1,2.97,2.194,2.006,2.006,0,0,1,1.722,2.051A2.179,2.179,0,0,1,8.257,8.013V7.3A1.289,1.289,0,0,0,9.5,5.879,1.486,1.486,0,0,0,7.782,4.852a1.647,1.647,0,0,0-.893-1.839,2.506,2.506,0,0,0-2.391,0,1.647,1.647,0,0,0-.892,1.839,1.5,1.5,0,0,0-1.745.99A1.275,1.275,0,0,0,3.055,7.289l.077.011v.713A2.179,2.179,0,0,1,1,6.245,2.005,2.005,0,0,1,2.724,4.194,2.848,2.848,0,0,1,5.694,2Z" transform="translate(-0.569 -1.292)" fill="#3e3419"/>
    </g>
  </g>
</svg>
